<?xml version="1.0" encoding="utf-8"?>
<!-- Generator: Adobe Illustrator 22.1.0, SVG Export Plug-In . SVG Version: 6.00 Build 0)  -->
<svg version="1.1" id="图层_1" xmlns="http://www.w3.org/2000/svg" xmlns:xlink="http://www.w3.org/1999/xlink" x="0px" y="0px"
	 viewBox="0 0 64 64" style="enable-background:new 0 0 64 64;" xml:space="preserve">
<style type="text/css">
	.st0{fill:#0B2F6D;}
	.st1{fill:#0F63B7;}
	.st2{fill:#FFFFFF;}
	.st3{fill:#F9F9F9;}
</style>
<path class="st0" d="M12.5,54.3h39c1.4,0,2.5,1.1,2.5,2.5v2.7c0,1.4-1.1,2.5-2.5,2.5h-39c-1.4,0-2.5-1.1-2.5-2.5v-2.7
	C10,55.4,11.1,54.3,12.5,54.3z"/>
<path class="st1" d="M12.5,1.5h39C52.9,1.5,54,2.6,54,4v47.8c0,1.4-1.1,2.5-2.5,2.5h-39c-1.4,0-2.5-1.1-2.5-2.5V4
	C10,2.6,11.1,1.5,12.5,1.5z"/>
<path class="st0" d="M10,51.1h44V59H10V51.1z"/>
<g transform="matrix(.81954967 0 0 .81954967 -3.534286 10.121829)">
	<path class="st2" d="M36.1,59h-0.9v-4.9h0.9v0.8h0c0.1-0.3,0.3-0.5,0.6-0.7c0.3-0.2,0.6-0.3,0.8-0.3c0.3,0,0.5,0,0.7,0.1l-0.4,0.9
		c-0.1,0-0.3-0.1-0.5-0.1c-0.3,0-0.6,0.1-0.9,0.4c-0.3,0.3-0.4,0.6-0.4,1L36.1,59z"/>
	<path class="st2" d="M41.4,59.1c-0.4,0-0.7-0.1-1-0.2c-0.3-0.2-0.5-0.4-0.7-0.6h0l0,0.7v2.2h-0.9v-7.1h0.9v0.7h0
		c0.1-0.2,0.4-0.4,0.7-0.6c0.3-0.2,0.6-0.2,1-0.2c0.6,0,1.2,0.3,1.6,0.8c0.5,0.5,0.7,1.1,0.7,1.9s-0.2,1.4-0.7,1.9
		C42.6,58.9,42,59.1,41.4,59.1z M41.2,58.3c0.4,0,0.8-0.2,1.1-0.5c0.3-0.3,0.5-0.8,0.5-1.3s-0.2-1-0.5-1.3c-0.3-0.3-0.7-0.5-1.1-0.5
		c-0.4,0-0.8,0.2-1.1,0.5c-0.3,0.3-0.5,0.7-0.5,1.3s0.1,1,0.5,1.3C40.4,58.1,40.8,58.3,41.2,58.3z"/>
	<path class="st2" d="M44.5,59v-4.9h0.9v0.7h0c0.1-0.2,0.4-0.4,0.6-0.6c0.3-0.2,0.6-0.3,0.9-0.3c0.8,0,1.3,0.3,1.5,0.9
		c0.4-0.6,1-0.9,1.7-0.9c0.6,0,1,0.2,1.3,0.6c0.3,0.4,0.4,0.9,0.4,1.5v3H51v-2.9c0-0.5-0.1-0.8-0.3-1s-0.5-0.3-0.8-0.3
		c-0.4,0-0.7,0.2-0.9,0.5c-0.2,0.3-0.3,0.7-0.3,1V59h-0.9v-2.9c0-0.5-0.1-0.8-0.3-1c-0.2-0.2-0.5-0.3-0.8-0.3
		c-0.4,0-0.7,0.2-0.9,0.5c-0.2,0.3-0.3,0.7-0.3,1V59L44.5,59z"/>
</g>
<g>
	<path class="st3" d="M16,22.4h4.8c1.1,0,2,0.2,2.6,0.7c0.7,0.5,1,1.3,1,2.3c0,0.6-0.2,1.1-0.5,1.5c-0.3,0.5-0.8,0.8-1.4,1v0
		c1,0.2,1.5,0.8,1.6,1.9l0.2,1.7c0.1,0.7,0.3,1.2,0.6,1.6h-1.8c-0.3-0.3-0.4-0.8-0.5-1.4l-0.1-1.3c-0.1-0.6-0.3-1-0.6-1.3
		c-0.3-0.3-0.8-0.4-1.4-0.4h-2.9v4.5H16V22.4z M17.7,23.8v3.5h2.9c0.7,0,1.3-0.2,1.6-0.5c0.4-0.3,0.5-0.7,0.5-1.3
		c0-0.6-0.2-1-0.5-1.3c-0.4-0.3-0.9-0.4-1.7-0.4H17.7z"/>
	<path class="st3" d="M26.5,22.4H31c2.6,0,3.9,1.1,3.9,3.3c0,2.2-1.3,3.3-3.9,3.3h-2.8v4.2h-1.7V22.4z M28.1,23.8v3.8h2.7
		c0.8,0,1.4-0.2,1.8-0.5c0.4-0.3,0.6-0.8,0.6-1.5c0-0.7-0.2-1.2-0.6-1.4c-0.4-0.3-1-0.5-1.8-0.5H28.1z"/>
	<path class="st3" d="M36.4,22.4h2l3.8,8.7h0l3.8-8.7h2v10.8h-1.7v-7.7h-0.1l-3.3,7.7h-1.4l-3.3-7.7H38v7.7h-1.7V22.4z"/>
</g>
</svg>
