<?xml version="1.0" encoding="utf-8"?>
<!-- Generator: Adobe Illustrator 22.1.0, SVG Export Plug-In . SVG Version: 6.00 Build 0)  -->
<svg version="1.1" id="图层_1" xmlns="http://www.w3.org/2000/svg" xmlns:xlink="http://www.w3.org/1999/xlink" x="0px" y="0px"
	 viewBox="0 0 16 16" style="enable-background:new 0 0 16 16;" xml:space="preserve">
<style type="text/css">
	.st0{fill:#FFA000;}
	.st1{fill:#FFFFFF;}
	.st2{fill:#FFCA28;}
	.st3{fill:#FFB806;}
	.st4{fill:#FFF8E1;}
	.st5{fill:#38CAF2;}
</style>
<path class="st0" d="M14.7,14.5H1.4c-0.4,0-0.6-0.3-0.6-0.6V3.4c0-0.4,0.3-0.6,0.6-0.6h13.3c0.4,0,0.6,0.3,0.6,0.6v10.5
	C15.3,14.2,15,14.5,14.7,14.5L14.7,14.5z M14.7,14.5"/>
<path class="st0" d="M8,5.5H0.8V2.3c0-0.4,0.3-0.6,0.6-0.6h5c0.3,0,0.5,0.2,0.6,0.5L8,5.5z M8,5.5"/>
<path class="st1" d="M13.7,13.7H2.4c-0.4,0-0.6-0.3-0.6-0.6V4.4c0-0.4,0.3-0.6,0.6-0.6h11.2c0.4,0,0.6,0.3,0.6,0.6v8.7
	C14.3,13.5,14,13.7,13.7,13.7L13.7,13.7z M13.7,13.7"/>
<path class="st2" d="M14.7,14.5H1.4c-0.4,0-0.6-0.3-0.6-0.6V5.6C0.8,5.3,1.1,5,1.4,5h13.3c0.4,0,0.6,0.3,0.6,0.6v8.3
	C15.3,14.2,15,14.5,14.7,14.5L14.7,14.5z M14.7,14.5"/>
<path class="st3" d="M13.6,5l-3.9,6.8L6.3,7.2L2.1,7.4l1.6,2.1L2.1,9.6l3.7,4.9h8.8c0.4,0,0.6-0.3,0.6-0.6V7.3L13.6,5z M13.6,5"/>
<path class="st4" d="M6,7.6H2.4c-0.2,0-0.3-0.1-0.3-0.3C2.1,7.1,2.3,7,2.4,7H6c0.2,0,0.3,0.1,0.3,0.3C6.3,7.5,6.1,7.6,6,7.6L6,7.6z
	 M6,9.8H2.4c-0.2,0-0.3-0.1-0.3-0.3c0-0.2,0.1-0.3,0.3-0.3H6c0.2,0,0.3,0.1,0.3,0.3C6.3,9.7,6.1,9.8,6,9.8L6,9.8z M6,9.8"/>
<path class="st5" d="M13.3,12.1L11.6,11c-0.1,0-0.1,0-0.2,0l-1.7,1.1c-0.1,0.1-0.2,0-0.2-0.1V5c0-0.2,0.1-0.3,0.3-0.3h3.5
	c0.2,0,0.3,0.1,0.3,0.3V12C13.6,12.1,13.4,12.2,13.3,12.1L13.3,12.1z M13.3,12.1"/>
</svg>
