<svg xmlns="http://www.w3.org/2000/svg" width="16" height="16" viewBox="0 0 16 16">
  <metadata><?xpacket begin="﻿" id="W5M0MpCehiHzreSzNTczkc9d"?>
<x:xmpmeta xmlns:x="adobe:ns:meta/" x:xmptk="Adobe XMP Core 5.6-c138 79.159824, 2016/09/14-01:09:01        ">
   <rdf:RDF xmlns:rdf="http://www.w3.org/1999/02/22-rdf-syntax-ns#">
      <rdf:Description rdf:about=""/>
   </rdf:RDF>
</x:xmpmeta>
                                                                                                    
                                                                                                    
                                                                                                    
                                                                                                    
                                                                                                    
                                                                                                    
                                                                                                    
                                                                                                    
                                                                                                    
                                                                                                    
                                                                                                    
                                                                                                    
                                                                                                    
                                                                                                    
                                                                                                    
                                                                                                    
                                                                                                    
                                                                                                    
                                                                                                    
                                                                                                    
                           
<?xpacket end="w"?></metadata>
<defs>
    <style>
      .cls-1 {
        fill: #fff;
      }

      .cls-1, .cls-2 {
        fill-rule: evenodd;
      }

      .cls-2 {
        fill: #ffb628;
      }
    </style>
  </defs>
  <g id="网络错误">
    <path id="形状_520_拷贝_2" data-name="形状 520 拷贝 2" class="cls-1" d="M147.434,377H132.663a0.608,0.608,0,0,0-.652.542v8.666a0.513,0.513,0,0,0,.543.542h6.734v1.95h-2.933a0.346,0.346,0,0,0-.325.325v0.867a0.106,0.106,0,0,0,.108.108h7.712a0.106,0.106,0,0,0,.109-0.108v-0.867a0.347,0.347,0,0,0-.326-0.325H140.7v-1.95h6.734a0.513,0.513,0,0,0,.543-0.542v-8.666a0.465,0.465,0,0,0-.543-0.542h0Zm-0.651,8.558H133.314V378.3h13.36v7.258h0.109Z" transform="translate(-132 -375)"/>
    <path id="形状_521" data-name="形状 521" class="cls-2" d="M147.9,390.012l-3.864-6.691a0.6,0.6,0,0,0-1.066,0l-3.864,6.691a0.639,0.639,0,0,0,.533,1h7.728a0.653,0.653,0,0,0,.533-1h0Z" transform="translate(-132 -375)"/>
    <path id="_" data-name="!" class="cls-1" d="M143.254,388.7h0.473l0.1-3.707h-0.669Zm0.236,0.595a0.571,0.571,0,0,0-.354.1,0.285,0.285,0,0,0-.148.253,0.3,0.3,0,0,0,.148.245,0.568,0.568,0,0,0,.354.105,0.66,0.66,0,0,0,.355-0.1,0.306,0.306,0,0,0,.148-0.252,0.285,0.285,0,0,0-.148-0.253,0.6,0.6,0,0,0-.355-0.1h0Z" transform="translate(-132 -375)"/>
  </g>
</svg>
