<svg xmlns="http://www.w3.org/2000/svg" width="16" height="16" viewBox="0 0 16 16">
  <metadata><?xpacket begin="﻿" id="W5M0MpCehiHzreSzNTczkc9d"?>
<x:xmpmeta xmlns:x="adobe:ns:meta/" x:xmptk="Adobe XMP Core 5.6-c138 79.159824, 2016/09/14-01:09:01        ">
   <rdf:RDF xmlns:rdf="http://www.w3.org/1999/02/22-rdf-syntax-ns#">
      <rdf:Description rdf:about=""/>
   </rdf:RDF>
</x:xmpmeta>
                                                                                                    
                                                                                                    
                                                                                                    
                                                                                                    
                                                                                                    
                                                                                                    
                                                                                                    
                                                                                                    
                                                                                                    
                                                                                                    
                                                                                                    
                                                                                                    
                                                                                                    
                                                                                                    
                                                                                                    
                                                                                                    
                                                                                                    
                                                                                                    
                                                                                                    
                                                                                                    
                           
<?xpacket end="w"?></metadata>
<defs>
    <style>
      .cls-1 {
        fill: #fff;
        fill-rule: evenodd;
      }
    </style>
  </defs>
  <g id="网络连接">
    <path id="形状_520_拷贝" data-name="形状 520 拷贝" class="cls-1" d="M15.434,377H0.663a0.608,0.608,0,0,0-.652.542v8.666a0.513,0.513,0,0,0,.543.542H7.288v1.95H4.355a0.346,0.346,0,0,0-.326.325v0.867a0.106,0.106,0,0,0,.109.108H11.85a0.106,0.106,0,0,0,.109-0.108v-0.867a0.347,0.347,0,0,0-.326-0.325H8.7v-1.95h6.734a0.513,0.513,0,0,0,.543-0.542v-8.666A0.465,0.465,0,0,0,15.434,377h0Zm-0.652,8.558H1.314V378.3h13.36v7.258h0.109Z" transform="translate(0 -375)"/>
  </g>
</svg>
