<svg xmlns="http://www.w3.org/2000/svg" width="16" height="16" viewBox="0 0 16 16">
  <metadata><?xpacket begin="﻿" id="W5M0MpCehiHzreSzNTczkc9d"?>
<x:xmpmeta xmlns:x="adobe:ns:meta/" x:xmptk="Adobe XMP Core 5.6-c138 79.159824, 2016/09/14-01:09:01        ">
   <rdf:RDF xmlns:rdf="http://www.w3.org/1999/02/22-rdf-syntax-ns#">
      <rdf:Description rdf:about=""/>
   </rdf:RDF>
</x:xmpmeta>
                                                                                                    
                                                                                                    
                                                                                                    
                                                                                                    
                                                                                                    
                                                                                                    
                                                                                                    
                                                                                                    
                                                                                                    
                                                                                                    
                                                                                                    
                                                                                                    
                                                                                                    
                                                                                                    
                                                                                                    
                                                                                                    
                                                                                                    
                                                                                                    
                                                                                                    
                                                                                                    
                           
<?xpacket end="w"?></metadata>
<defs>
    <style>
      .cls-1 {
        fill: #fff;
        fill-rule: evenodd;
      }

      .cls-2 {
        fill: red;
      }
    </style>
  </defs>
  <g id="蓝牙1_禁用" data-name="蓝牙1 禁用">
    <g id="组_20" data-name="组 20">
      <path id="形状_3" data-name="形状 3" class="cls-1" d="M542.67,130.065l-4.9-3.065,4.9-3.065a0.709,0.709,0,0,0,0-1.2l-5.8-3.632-0.013-.007-0.04-.022-0.022-.011a0.7,0.7,0,0,0-.2-0.059,0.565,0.565,0,0,0-.071,0h-0.03l-0.038,0-0.032,0-0.032.005-0.037.007-0.026.007c-0.014,0-.027.007-0.04,0.012a0.234,0.234,0,0,0-.024.009c-0.013,0-.025.009-0.037,0.015l-0.028.013-0.031.016-0.032.019-0.024.016-0.033.025-0.02.016-0.031.028-0.019.019c-0.009.009-.017,0.019-0.025,0.028l-0.021.025-0.02.027-0.022.032-0.007.01-0.008.015a0.623,0.623,0,0,0-.032.063,0.586,0.586,0,0,0-.036.1c-0.006.021-.011,0.043-0.015,0.065s0,0.028-.007.042l0,0.026c0,0.015,0,.03,0,0.046v6.016l-4.744-2.969a0.689,0.689,0,0,0-.7-0.021,0.708,0.708,0,0,0-.036,1.219l4.9,3.065-4.9,3.065a0.709,0.709,0,0,0-.226.969,0.691,0.691,0,0,0,.957.229l4.744-2.968v6.015a0.673,0.673,0,0,0,.018.142,0.691,0.691,0,0,0,.03.1c0.009,0.021.018,0.042,0.028,0.062s0.013,0.024.019,0.036l0.008,0.015,0.006,0.008c0.014,0.021.028,0.042,0.043,0.062l0.006,0.007a0.745,0.745,0,0,0,.053.058l0.022,0.02a0.412,0.412,0,0,0,.04.033l0.024,0.018a0.438,0.438,0,0,0,.058.037l0.008,0a0.593,0.593,0,0,0,.072.034l0.019,0.007a0.57,0.57,0,0,0,.08.025,0.559,0.559,0,0,0,.059.011l0.022,0a0.6,0.6,0,0,0,.073,0h0.017a0.613,0.613,0,0,0,.074,0l0.027,0c0.02,0,.041-0.008.061-0.013l0.023-.006a0.706,0.706,0,0,0,.081-0.029l0.008,0a0.733,0.733,0,0,0,.073-0.039l0.009,0,5.8-3.632a0.709,0.709,0,0,0,0-1.2h0Zm-5.474-9.1,3.786,2.369-3.786,2.369v-4.738Zm0,12.066v-4.738l3.786,2.369Zm0,0" transform="translate(-528 -119)"/>
      <circle id="椭圆_1" data-name="椭圆 1" class="cls-2" cx="12" cy="12" r="4"/>
      <path id="矩形_518_拷贝" data-name="矩形 518 拷贝" class="cls-1" d="M542.4,132.6l-0.8.8-1.6-1.6-1.6,1.6-0.8-.8,1.6-1.6-1.6-1.6,0.8-.8,1.6,1.6,1.6-1.6,0.8,0.8-1.6,1.6Z" transform="translate(-528 -119)"/>
    </g>
  </g>
</svg>
