<svg xmlns="http://www.w3.org/2000/svg" width="16" height="16" viewBox="0 0 16 16">
  <metadata><?xpacket begin="﻿" id="W5M0MpCehiHzreSzNTczkc9d"?>
<x:xmpmeta xmlns:x="adobe:ns:meta/" x:xmptk="Adobe XMP Core 5.6-c138 79.159824, 2016/09/14-01:09:01        ">
   <rdf:RDF xmlns:rdf="http://www.w3.org/1999/02/22-rdf-syntax-ns#">
      <rdf:Description rdf:about=""/>
   </rdf:RDF>
</x:xmpmeta>
                                                                                                    
                                                                                                    
                                                                                                    
                                                                                                    
                                                                                                    
                                                                                                    
                                                                                                    
                                                                                                    
                                                                                                    
                                                                                                    
                                                                                                    
                                                                                                    
                                                                                                    
                                                                                                    
                                                                                                    
                                                                                                    
                                                                                                    
                                                                                                    
                                                                                                    
                                                                                                    
                           
<?xpacket end="w"?></metadata>
<defs>
    <style>
      .cls-1 {
        fill: #4c4c4c;
        fill-rule: evenodd;
      }
    </style>
  </defs>
  <g id="蓝牙_2" data-name="蓝牙 2">
    <path id="形状_3" data-name="形状 3" class="cls-1" d="M674.67,11.065L669.771,8l4.9-3.065a0.708,0.708,0,0,0,0-1.2l-5.8-3.632L668.853,0.1l-0.04-.022-0.022-.011a0.7,0.7,0,0,0-.2-0.059A0.624,0.624,0,0,0,668.517,0h-0.03l-0.038,0-0.032,0-0.032,0-0.037.007-0.026.007-0.04.011-0.024.009-0.037.015-0.028.013-0.031.016-0.032.019-0.024.016-0.033.025-0.02.016-0.031.028L668,0.212c-0.009.009-.017,0.019-0.025,0.028s-0.014.016-.021,0.025-0.014.018-.02,0.027l-0.022.032-0.007.01-0.008.015a0.531,0.531,0,0,0-.032.063,0.583,0.583,0,0,0-.036.1q-0.009.032-.015,0.066c0,0.014,0,.028-0.007.042l0,0.026c0,0.015,0,.03,0,0.046V6.706l-4.744-2.968a0.688,0.688,0,0,0-.7-0.021,0.708,0.708,0,0,0-.036,1.219L667.228,8l-4.9,3.065a0.709,0.709,0,0,0-.226.969,0.691,0.691,0,0,0,.957.229l4.744-2.968V15.31a0.681,0.681,0,0,0,.018.142,0.711,0.711,0,0,0,.03.1c0.009,0.021.018,0.042,0.028,0.062l0.019,0.036,0.008,0.015,0.006,0.008c0.014,0.021.028,0.042,0.043,0.061l0.006,0.008c0.017,0.02.035,0.039,0.053,0.058l0.022,0.02c0.013,0.011.026,0.022,0.04,0.033l0.024,0.018a0.571,0.571,0,0,0,.058.037l0.008,0a0.661,0.661,0,0,0,.072.034l0.019,0.007a0.7,0.7,0,0,0,.08.025c0.019,0,.039.008,0.059,0.011l0.022,0a0.715,0.715,0,0,0,.073,0h0.017a0.682,0.682,0,0,0,.074-0.005l0.027,0c0.02,0,.041-0.008.061-0.013l0.023-.006a0.655,0.655,0,0,0,.081-0.029l0.008,0a0.8,0.8,0,0,0,.073-0.039l0.009,0,5.8-3.632a0.708,0.708,0,0,0,0-1.2h0Zm-5.474-9.1,3.786,2.369L669.2,6.705V1.967Zm0,12.066V9.295l3.786,2.369Zm0,0" transform="translate(-660)"/>
  </g>
</svg>
