<svg xmlns="http://www.w3.org/2000/svg" width="16" height="16" viewBox="0 0 16 16">
  <metadata><?xpacket begin="﻿" id="W5M0MpCehiHzreSzNTczkc9d"?>
<x:xmpmeta xmlns:x="adobe:ns:meta/" x:xmptk="Adobe XMP Core 5.6-c138 79.159824, 2016/09/14-01:09:01        ">
   <rdf:RDF xmlns:rdf="http://www.w3.org/1999/02/22-rdf-syntax-ns#">
      <rdf:Description rdf:about=""/>
   </rdf:RDF>
</x:xmpmeta>
                                                                                                    
                                                                                                    
                                                                                                    
                                                                                                    
                                                                                                    
                                                                                                    
                                                                                                    
                                                                                                    
                                                                                                    
                                                                                                    
                                                                                                    
                                                                                                    
                                                                                                    
                                                                                                    
                                                                                                    
                                                                                                    
                                                                                                    
                                                                                                    
                                                                                                    
                                                                                                    
                           
<?xpacket end="w"?></metadata>
<defs>
    <style>
      .cls-1 {
        fill: #fff;
        fill-rule: evenodd;
      }

      .cls-2 {
        fill: red;
      }
    </style>
  </defs>
  <g id="网络断开">
    <g id="组_14" data-name="组 14">
      <path id="形状_520" data-name="形状 520" class="cls-1" d="M279.434,377H264.663a0.608,0.608,0,0,0-.652.542v8.666a0.513,0.513,0,0,0,.543.542h6.734v1.95h-2.933a0.346,0.346,0,0,0-.325.325v0.867a0.106,0.106,0,0,0,.108.108h7.712a0.106,0.106,0,0,0,.109-0.108v-0.867a0.347,0.347,0,0,0-.326-0.325H272.7v-1.95h6.734a0.513,0.513,0,0,0,.543-0.542v-8.666a0.465,0.465,0,0,0-.543-0.542h0Zm-0.651,8.558H265.314V378.3h13.36v7.258h0.109Z" transform="translate(-264 -375)"/>
      <circle id="椭圆_1_拷贝" data-name="椭圆 1 拷贝" class="cls-2" cx="12" cy="12" r="4"/>
      <path id="矩形_518_拷贝_2" data-name="矩形 518 拷贝 2" class="cls-1" d="M278.4,388.6l-0.8.8-1.6-1.6-1.6,1.6-0.8-.8,1.6-1.6-1.6-1.6,0.8-.8,1.6,1.6,1.6-1.6,0.8,0.8-1.6,1.6Z" transform="translate(-264 -375)"/>
    </g>
  </g>
</svg>
