<svg id="弹出" xmlns="http://www.w3.org/2000/svg" width="120" height="120" viewBox="0 0 120 120">
  <metadata><?xpacket begin="﻿" id="W5M0MpCehiHzreSzNTczkc9d"?>
<x:xmpmeta xmlns:x="adobe:ns:meta/" x:xmptk="Adobe XMP Core 5.6-c138 79.159824, 2016/09/14-01:09:01        ">
   <rdf:RDF xmlns:rdf="http://www.w3.org/1999/02/22-rdf-syntax-ns#">
      <rdf:Description rdf:about=""/>
   </rdf:RDF>
</x:xmpmeta>
                                                                                                    
                                                                                                    
                                                                                                    
                                                                                                    
                                                                                                    
                                                                                                    
                                                                                                    
                                                                                                    
                                                                                                    
                                                                                                    
                                                                                                    
                                                                                                    
                                                                                                    
                                                                                                    
                                                                                                    
                                                                                                    
                                                                                                    
                                                                                                    
                                                                                                    
                                                                                                    
                           
<?xpacket end="w"?></metadata>
<defs>
    <style>
      .cls-1 {
        fill: #222;
        opacity: 0.6;
      }

      .cls-2 {
        fill: #fff;
        fill-rule: evenodd;
      }
    </style>
  </defs>
  <rect id="圆角矩形_1" data-name="圆角矩形 1" class="cls-1" width="120" height="120" rx="12" ry="12"/>
  <path id="形状_520_拷贝" data-name="形状 520 拷贝" class="cls-2" d="M965.888,511.152l21,32a6.739,6.739,0,0,1,.252,6.99,7.023,7.023,0,0,1-6.14,3.57H939a7.025,7.025,0,0,1-6.144-3.571,6.74,6.74,0,0,1,.255-6.993l21-32a7.079,7.079,0,0,1,11.776,0v0ZM988,567.426A4.619,4.619,0,0,1,983.331,572H936.668a4.572,4.572,0,1,1,0-9.142h46.663A4.619,4.619,0,0,1,988,567.426h0Zm0,0" transform="translate(-900 -480)"/>
</svg>
