<svg id="小写" xmlns="http://www.w3.org/2000/svg" width="120" height="120" viewBox="0 0 120 120">
  <metadata><?xpacket begin="﻿" id="W5M0MpCehiHzreSzNTczkc9d"?>
<x:xmpmeta xmlns:x="adobe:ns:meta/" x:xmptk="Adobe XMP Core 5.6-c138 79.159824, 2016/09/14-01:09:01        ">
   <rdf:RDF xmlns:rdf="http://www.w3.org/1999/02/22-rdf-syntax-ns#">
      <rdf:Description rdf:about=""/>
   </rdf:RDF>
</x:xmpmeta>
                                                                                                    
                                                                                                    
                                                                                                    
                                                                                                    
                                                                                                    
                                                                                                    
                                                                                                    
                                                                                                    
                                                                                                    
                                                                                                    
                                                                                                    
                                                                                                    
                                                                                                    
                                                                                                    
                                                                                                    
                                                                                                    
                                                                                                    
                                                                                                    
                                                                                                    
                                                                                                    
                           
<?xpacket end="w"?></metadata>
<defs>
    <style>
      .cls-1 {
        fill: #222;
        opacity: 0.6;
      }

      .cls-2 {
        fill: #fff;
        fill-rule: evenodd;
      }
    </style>
  </defs>
  <rect id="圆角矩形_1" data-name="圆角矩形 1" class="cls-1" width="120" height="120" rx="12" ry="12"/>
  <path id="a" class="cls-2" d="M962,507.972q-11.2,0-17.6,4.7-7.314,5.051-8.684,15.5h9.027a13.7,13.7,0,0,1,5.485-9.4q4-3.053,11.2-3.053,15.426,0,15.426,15.268v2l-14.169.118q-12.341,0-19.654,4.463Q934,542.853,934,554.481a16.189,16.189,0,0,0,5.485,12.8q5.255,4.7,14.169,4.7a30.314,30.314,0,0,0,14.626-3.641,27.619,27.619,0,0,0,9.141-8.221v10.218h8.57V531.344q0-10.452-5.256-16.56-6.171-6.81-18.74-6.812h0Zm14.855,37.7q0,7.4-6.056,13.037a21.965,21.965,0,0,1-15.2,5.637q-5.715,0-9.027-2.7a9.254,9.254,0,0,1-3.2-7.282q0-13.857,19.882-13.859l13.6-.117v5.285Z" transform="translate(-900 -480)"/>
</svg>
