<svg id="触摸板" xmlns="http://www.w3.org/2000/svg" width="120" height="120" viewBox="0 0 120 120">
  <metadata><?xpacket begin="﻿" id="W5M0MpCehiHzreSzNTczkc9d"?>
<x:xmpmeta xmlns:x="adobe:ns:meta/" x:xmptk="Adobe XMP Core 5.6-c138 79.159824, 2016/09/14-01:09:01        ">
   <rdf:RDF xmlns:rdf="http://www.w3.org/1999/02/22-rdf-syntax-ns#">
      <rdf:Description rdf:about=""/>
   </rdf:RDF>
</x:xmpmeta>
                                                                                                    
                                                                                                    
                                                                                                    
                                                                                                    
                                                                                                    
                                                                                                    
                                                                                                    
                                                                                                    
                                                                                                    
                                                                                                    
                                                                                                    
                                                                                                    
                                                                                                    
                                                                                                    
                                                                                                    
                                                                                                    
                                                                                                    
                                                                                                    
                                                                                                    
                                                                                                    
                           
<?xpacket end="w"?></metadata>
<defs>
    <style>
      .cls-1 {
        fill: #222;
        opacity: 0.6;
      }

      .cls-2 {
        fill: #fff;
        fill-rule: evenodd;
      }
    </style>
  </defs>
  <rect id="圆角矩形_1" data-name="圆角矩形 1" class="cls-1" width="120" height="120" rx="12" ry="12"/>
  <path id="形状_520" data-name="形状 520" class="cls-2" d="M983.273,566A8.7,8.7,0,0,0,992,557.333V522.666A8.7,8.7,0,0,0,983.273,514H936.727A8.7,8.7,0,0,0,928,522.666v34.667A8.7,8.7,0,0,0,936.727,566h46.546Zm-46.546-46.222h46.546a2.9,2.9,0,0,1,2.909,2.888v23.112H933.818V522.666a2.9,2.9,0,0,1,2.909-2.888h0Zm-2.909,31.778h23.273v8.666H936.727a2.9,2.9,0,0,1-2.909-2.889v-5.777Zm29.091,8.666v-8.666h23.273v5.777a2.9,2.9,0,0,1-2.909,2.889H962.909Zm0,0" transform="translate(-900 -480)"/>
</svg>
