<svg id="数字键盘_不可用" data-name="数字键盘 不可用" xmlns="http://www.w3.org/2000/svg" width="120" height="120" viewBox="0 0 120 120">
  <metadata><?xpacket begin="﻿" id="W5M0MpCehiHzreSzNTczkc9d"?>
<x:xmpmeta xmlns:x="adobe:ns:meta/" x:xmptk="Adobe XMP Core 5.6-c138 79.159824, 2016/09/14-01:09:01        ">
   <rdf:RDF xmlns:rdf="http://www.w3.org/1999/02/22-rdf-syntax-ns#">
      <rdf:Description rdf:about=""/>
   </rdf:RDF>
</x:xmpmeta>
                                                                                                    
                                                                                                    
                                                                                                    
                                                                                                    
                                                                                                    
                                                                                                    
                                                                                                    
                                                                                                    
                                                                                                    
                                                                                                    
                                                                                                    
                                                                                                    
                                                                                                    
                                                                                                    
                                                                                                    
                                                                                                    
                                                                                                    
                                                                                                    
                                                                                                    
                                                                                                    
                           
<?xpacket end="w"?></metadata>
<defs>
    <style>
      .cls-1 {
        fill: #222;
        opacity: 0.6;
      }

      .cls-2 {
        fill: #919191;
        fill-rule: evenodd;
      }
    </style>
  </defs>
  <rect id="圆角矩形_1" data-name="圆角矩形 1" class="cls-1" width="120" height="120" rx="12" ry="12"/>
  <path id="圆角矩形_2_拷贝_2" data-name="圆角矩形 2 拷贝 2" class="cls-2" d="M988,564H932a4,4,0,0,1-4-4V520a4,4,0,0,1,4-4h56a4,4,0,0,1,4,4v40A4,4,0,0,1,988,564Zm0-42a2,2,0,0,0-2-2H934a2,2,0,0,0-2,2v36a2,2,0,0,0,2,2h52a2,2,0,0,0,2-2V522Z" transform="translate(-900 -480)"/>
  <path id="_123" data-name="123" class="cls-2" d="M940.873,529.294a12.633,12.633,0,0,1-2.67,2.1,13.972,13.972,0,0,1-3.09,1.26v3.48a12.059,12.059,0,0,0,4.89-2.61v17.19h3.51v-21.42h-2.64Zm18.6-.42a7.19,7.19,0,0,0-5.58,2.34,8.37,8.37,0,0,0-2.1,5.79h3.51a6.5,6.5,0,0,1,1.08-3.81,3.445,3.445,0,0,1,2.97-1.35,4.051,4.051,0,0,1,2.79.84,3.41,3.41,0,0,1,.93,2.61,5.038,5.038,0,0,1-1.41,3.39,18.921,18.921,0,0,1-2.94,2.4,29.189,29.189,0,0,0-4.92,3.93,8.3,8.3,0,0,0-2.13,5.7h14.94v-3.09h-10.56q0.72-1.62,3.99-3.78a27.424,27.424,0,0,0,4.44-3.45,7.457,7.457,0,0,0,2.1-5.07,6,6,0,0,0-1.98-4.65,7.4,7.4,0,0,0-5.13-1.8h0Zm17.88,0a7.494,7.494,0,0,0-5.19,1.77,6.983,6.983,0,0,0-2.4,5.04h3.45a4.129,4.129,0,0,1,1.26-2.88,5.109,5.109,0,0,1,5.7-.12,3.083,3.083,0,0,1,.87,2.37,2.962,2.962,0,0,1-.96,2.4,4.453,4.453,0,0,1-2.88.81h-1.5v2.64h1.5a4.851,4.851,0,0,1,3.15.87,3.221,3.221,0,0,1,1.11,2.7,3.47,3.47,0,0,1-1.05,2.55,4.464,4.464,0,0,1-3.21,1.14,4.207,4.207,0,0,1-2.97-1.05,4.368,4.368,0,0,1-1.32-3.21h-3.57a7.584,7.584,0,0,0,2.52,5.52,8.082,8.082,0,0,0,5.37,1.71,8.2,8.2,0,0,0,5.67-1.95,6.283,6.283,0,0,0,2.07-4.86,4.488,4.488,0,0,0-1.08-3.12,6,6,0,0,0-2.91-1.74,4.6,4.6,0,0,0,3.57-4.68,5.312,5.312,0,0,0-1.95-4.35,8.174,8.174,0,0,0-5.25-1.56h0Z" transform="translate(-900 -480)"/>
</svg>
