<svg id="音量-静音" xmlns="http://www.w3.org/2000/svg" width="120" height="120" viewBox="0 0 120 120">
  <metadata><?xpacket begin="﻿" id="W5M0MpCehiHzreSzNTczkc9d"?>
<x:xmpmeta xmlns:x="adobe:ns:meta/" x:xmptk="Adobe XMP Core 5.6-c138 79.159824, 2016/09/14-01:09:01        ">
   <rdf:RDF xmlns:rdf="http://www.w3.org/1999/02/22-rdf-syntax-ns#">
      <rdf:Description rdf:about=""/>
   </rdf:RDF>
</x:xmpmeta>
                                                                                                    
                                                                                                    
                                                                                                    
                                                                                                    
                                                                                                    
                                                                                                    
                                                                                                    
                                                                                                    
                                                                                                    
                                                                                                    
                                                                                                    
                                                                                                    
                                                                                                    
                                                                                                    
                                                                                                    
                                                                                                    
                                                                                                    
                                                                                                    
                                                                                                    
                                                                                                    
                           
<?xpacket end="w"?></metadata>
<defs>
    <style>
      .cls-1 {
        fill: #222;
        opacity: 0.6;
      }

      .cls-2 {
        fill: #fff;
        fill-rule: evenodd;
      }
    </style>
  </defs>
  <rect id="圆角矩形_1_拷贝_4" data-name="圆角矩形 1 拷贝 4" class="cls-1" width="120" height="120" rx="12" ry="12"/>
  <path id="形状_519_拷贝_3" data-name="形状 519 拷贝 3" class="cls-2" d="M932.693,532.653v14.933h7.253l13.227,10.241V522.413l-12.8,10.24h-7.68Zm5.974-4.693,15.36-12.374c0.853-.426,1.706-0.853,2.559-0.426a2.345,2.345,0,0,1,1.281,2.133V562.52a2.345,2.345,0,0,1-1.281,2.133,2.008,2.008,0,0,1-2.559-.426L938.24,551.853h-7.68a2.459,2.459,0,0,1-2.56-2.56V529.667a2.752,2.752,0,0,1,2.56-2.56h8.107v0.853Z" transform="translate(-900 -480)"/>
  <path id="矩形_519_拷贝" data-name="矩形 519 拷贝" class="cls-2" d="M992.065,549.982l-3.217,3.216-9.649-9.649-9.648,9.649-3.217-3.216,9.649-9.649-9.649-9.649,3.217-3.216,9.648,9.649,9.649-9.649,3.217,3.216-9.649,9.649Z" transform="translate(-900 -480)"/>
</svg>
