<svg id="音量-4" xmlns="http://www.w3.org/2000/svg" width="120" height="120" viewBox="0 0 120 120">
  <metadata><?xpacket begin="﻿" id="W5M0MpCehiHzreSzNTczkc9d"?>
<x:xmpmeta xmlns:x="adobe:ns:meta/" x:xmptk="Adobe XMP Core 5.6-c138 79.159824, 2016/09/14-01:09:01        ">
   <rdf:RDF xmlns:rdf="http://www.w3.org/1999/02/22-rdf-syntax-ns#">
      <rdf:Description rdf:about=""/>
   </rdf:RDF>
</x:xmpmeta>
                                                                                                    
                                                                                                    
                                                                                                    
                                                                                                    
                                                                                                    
                                                                                                    
                                                                                                    
                                                                                                    
                                                                                                    
                                                                                                    
                                                                                                    
                                                                                                    
                                                                                                    
                                                                                                    
                                                                                                    
                                                                                                    
                                                                                                    
                                                                                                    
                                                                                                    
                                                                                                    
                           
<?xpacket end="w"?></metadata>
<defs>
    <style>
      .cls-1 {
        fill: #222;
        opacity: 0.6;
      }

      .cls-2 {
        fill: #fff;
        fill-rule: evenodd;
      }
    </style>
  </defs>
  <rect id="圆角矩形_1" data-name="圆角矩形 1" class="cls-1" width="120" height="120" rx="12" ry="12"/>
  <path id="矩形_524_拷贝_3" data-name="矩形 524 拷贝 3" class="cls-2" d="M932.606,532.5v14.583h7.119l12.981,10V522.5l-12.563,10h-7.537Zm5.863-4.583,15.075-12.084a2.78,2.78,0,0,1,2.512-.416,2.29,2.29,0,0,1,1.256,2.083v44.166a2.291,2.291,0,0,1-1.256,2.084,1.978,1.978,0,0,1-2.512-.417L938.05,551.25h-7.538a2.408,2.408,0,0,1-2.512-2.5V529.583a2.7,2.7,0,0,1,2.512-2.5h7.957v0.834Zm27.218,3.75h4.188v16.666h-4.188V531.667Zm12.563-8.334h4.187v33.334H978.25V523.333ZM990.812,515H995v50h-4.188V515Z" transform="translate(-900 -480)"/>
</svg>
