<svg xmlns="http://www.w3.org/2000/svg" xmlns:xlink="http://www.w3.org/1999/xlink" width="48" height="48" viewBox="0 0 48 48" fill="none">
<path     fill="url(#linear_fill_PNJ7j7j_THxjow6uqSuxR_0)"  d="M6.54397 11.6563C5.80881 11.6563 5.21765 12.2491 5.21765 12.9843L5.21765 38.5279C5.21765 39.263 5.80881 39.8559 6.54397 39.8559L23.7505 39.8559L24.956 39.8559L42.1625 39.8559C42.8977 39.8559 43.4888 39.263 43.4888 38.5279L43.4888 12.9843C43.4888 12.2491 42.8977 11.6563 42.1625 11.6563L24.956 11.6563L23.7505 11.6563L6.54397 11.6563Z">
</path>
<path     fill="url(#linear_fill_5yiwGqveLNrW4LAzZW2fa_0)"  d="M18.4745 8.02055C18.3718 8.01786 18.2479 8.02212 18.0867 8.02212L5.91782 8.02212C5.53631 8.02212 5.22869 8.33191 5.22869 8.71596L5.22869 12.9449C5.22812 12.9609 5.22398 12.9759 5.22398 12.992L5.22398 38.5684C5.22398 39.3045 5.81749 39.898 6.55358 39.898L42.2519 39.898C42.988 39.898 43.5799 39.3045 43.5799 38.5684L43.5799 12.992C43.5799 12.2559 42.988 11.6624 42.2519 11.6624L20.9359 11.6624C20.9232 11.6455 20.9147 11.6365 20.9013 11.6185C20.4095 10.9558 19.6667 9.16928 19.1824 8.52288C18.8909 8.09842 18.7824 8.02862 18.4745 8.02055Z">
</path>
<path     fill="url(#linear_fill_Dd3I8WBL9vjoawKVT7NCR_0)"  d="M7.49916 9.45669L17.2376 9.45669C17.5146 9.45669 17.7376 9.67969 17.7376 9.95669L17.7376 11.0657C17.7376 11.3427 17.5146 11.5657 17.2376 11.5657L7.49916 11.5657C7.22216 11.5657 6.99916 11.3427 6.99916 11.0657L6.99916 9.95669C6.99916 9.67969 7.22216 9.45669 7.49916 9.45669Z">
</path>
<path     fill="url(#linear_fill_qu-6gvTqtT82vMVwoeTmK_0)"  d="M5.58046 12.8508C4.94207 12.8508 4.3853 13.3947 4.42871 14.0656L5.94075 37.4319C5.98417 38.1028 6.4541 38.6467 7.09249 38.6467L22.0342 38.6467L26.4114 38.6467L41.353 38.6467C41.9914 38.6467 42.4614 38.1028 42.5048 37.4319L44.0168 14.0656C44.0602 13.3947 43.5034 12.8508 42.8651 12.8508L26.4114 12.8508L22.0342 12.8508L5.58046 12.8508Z">
</path>
<path     fill="url(#linear_fill_2LRN4xE94vsuDCTMAjaey_0)"  d="M5.12369 14.5912C4.46914 14.5912 3.90933 15.133 3.94279 15.8028L5.08973 38.7687C5.12318 39.4385 5.61608 39.9803 6.27063 39.9803L21.9262 39.9803L26.4142 39.9803L42.4532 39.9324C43.1078 39.9304 43.6079 39.3909 43.6342 38.7208L44.5332 15.8028C44.5595 15.1327 44.0068 14.5912 43.3523 14.5912L26.482 14.5912L21.994 14.5912L5.12369 14.5912Z">
</path>
<path     fill="#FFFFFF"  d="M27.1468 28.013C26.9359 28.013 26.6959 28.013 26.4414 28.0494C27.285 28.6603 27.8741 29.4676 27.8741 30.5585L27.8741 32.3767L32.2377 32.3767L32.2377 30.5585C32.2377 28.864 28.8414 28.0131 27.1468 28.0131M21.3286 28.0131C19.6341 28.0131 16.2377 28.864 16.2377 30.5585L16.2377 32.3767L26.4195 32.3767L26.4195 30.5585C26.4195 28.864 23.0232 28.0131 21.3286 28.0131ZM21.3286 26.5585C21.4001 26.5585 21.4714 26.555 21.5425 26.548C21.6136 26.541 21.6842 26.5305 21.7543 26.5166C21.8244 26.5026 21.8936 26.4853 21.962 26.4646C22.0303 26.4438 22.0975 26.4197 22.1636 26.3924C22.2296 26.365 22.2941 26.3345 22.3571 26.3009C22.4202 26.2672 22.4814 26.2305 22.5408 26.1908C22.6002 26.1511 22.6575 26.1086 22.7128 26.0633C22.768 26.0179 22.8209 25.97 22.8714 25.9195C22.9219 25.8689 22.9699 25.816 23.0152 25.7608C23.0605 25.7056 23.103 25.6482 23.1427 25.5888C23.1824 25.5294 23.2191 25.4682 23.2528 25.4052C23.2865 25.3422 23.317 25.2776 23.3444 25.2116C23.3717 25.1456 23.3958 25.0784 23.4165 25.01C23.4372 24.9416 23.4546 24.8724 23.4685 24.8023C23.4824 24.7322 23.4929 24.6616 23.4999 24.5905C23.5069 24.5194 23.5104 24.4481 23.5104 24.3767C23.5104 24.3052 23.5069 24.2339 23.4999 24.1628C23.4929 24.0917 23.4824 24.0211 23.4685 23.951C23.4546 23.8809 23.4372 23.8117 23.4165 23.7433C23.3958 23.6749 23.3717 23.6077 23.3444 23.5417C23.317 23.4757 23.2865 23.4112 23.2528 23.3482C23.2191 23.2852 23.1824 23.2239 23.1427 23.1645C23.103 23.1051 23.0605 23.0478 23.0152 22.9926C22.9699 22.9373 22.9219 22.8844 22.8714 22.8339C22.8209 22.7833 22.768 22.7354 22.7128 22.6901C22.6575 22.6447 22.6002 22.6022 22.5408 22.5626C22.4814 22.5228 22.4202 22.4861 22.3571 22.4525C22.2941 22.4188 22.2296 22.3883 22.1636 22.361C22.0975 22.3336 22.0303 22.3095 21.962 22.2888C21.8936 22.268 21.8244 22.2507 21.7543 22.2368C21.6842 22.2228 21.6136 22.2124 21.5425 22.2054C21.4714 22.1984 21.4001 22.1949 21.3286 22.1949C21.2571 22.1949 21.1859 22.1984 21.1148 22.2054C21.0437 22.2124 20.9731 22.2228 20.903 22.2368C20.8329 22.2507 20.7636 22.268 20.6953 22.2888C20.6269 22.3095 20.5597 22.3336 20.4937 22.361C20.4277 22.3883 20.3632 22.4188 20.3001 22.4525C20.2371 22.4861 20.1759 22.5228 20.1165 22.5626C20.057 22.6022 19.9997 22.6447 19.9445 22.6901C19.8892 22.7354 19.8363 22.7833 19.7858 22.8339C19.7353 22.8844 19.6874 22.9373 19.6421 22.9926C19.5968 23.0478 19.5542 23.1051 19.5145 23.1645C19.4748 23.2239 19.4381 23.2852 19.4044 23.3482C19.3707 23.4112 19.3402 23.4757 19.3129 23.5417C19.2856 23.6077 19.2615 23.6749 19.2408 23.7433C19.22 23.8117 19.2026 23.8809 19.1887 23.951C19.1748 24.0211 19.1643 24.0917 19.1573 24.1628C19.1503 24.2339 19.1468 24.3052 19.1468 24.3767C19.1468 24.4481 19.1503 24.5194 19.1573 24.5905C19.1643 24.6616 19.1748 24.7322 19.1887 24.8023C19.2026 24.8724 19.22 24.9416 19.2408 25.01C19.2615 25.0784 19.2856 25.1456 19.3129 25.2116C19.3402 25.2776 19.3707 25.3422 19.4044 25.4052C19.4381 25.4682 19.4748 25.5294 19.5145 25.5888C19.5542 25.6482 19.5968 25.7056 19.6421 25.7608C19.6874 25.816 19.7353 25.8689 19.7858 25.9195C19.8363 25.97 19.8892 26.0179 19.9445 26.0633C19.9997 26.1086 20.057 26.1511 20.1165 26.1908C20.1759 26.2305 20.2371 26.2672 20.3001 26.3009C20.3631 26.3345 20.4276 26.365 20.4937 26.3924C20.5597 26.4197 20.6269 26.4438 20.6953 26.4646C20.7636 26.4853 20.8329 26.5026 20.903 26.5166C20.9731 26.5305 21.0437 26.541 21.1148 26.548C21.1859 26.555 21.2571 26.5585 21.3286 26.5585ZM27.1468 26.5585C27.2183 26.5585 27.2896 26.555 27.3607 26.548C27.4318 26.541 27.5024 26.5305 27.5725 26.5166C27.6426 26.5026 27.7118 26.4853 27.7802 26.4646C27.8485 26.4438 27.9157 26.4197 27.9817 26.3924C28.0478 26.365 28.1123 26.3345 28.1753 26.3009C28.2383 26.2672 28.2995 26.2305 28.359 26.1908C28.4184 26.1511 28.4757 26.1086 28.5309 26.0633C28.5862 26.0179 28.6391 25.97 28.6896 25.9195C28.7401 25.8689 28.7881 25.816 28.8334 25.7608C28.8787 25.7056 28.9212 25.6482 28.9609 25.5888C29.0006 25.5294 29.0373 25.4682 29.071 25.4052C29.1047 25.3422 29.1352 25.2776 29.1625 25.2116C29.1899 25.1456 29.214 25.0784 29.2347 25.01C29.2554 24.9416 29.2728 24.8724 29.2867 24.8023C29.3006 24.7322 29.3111 24.6616 29.3181 24.5905C29.3251 24.5194 29.3286 24.4481 29.3286 24.3767C29.3286 24.3052 29.3251 24.2339 29.3181 24.1628C29.3111 24.0917 29.3006 24.0211 29.2867 23.951C29.2728 23.8809 29.2554 23.8117 29.2347 23.7433C29.214 23.6749 29.1899 23.6077 29.1625 23.5417C29.1352 23.4757 29.1047 23.4112 29.071 23.3482C29.0373 23.2852 29.0006 23.2239 28.9609 23.1645C28.9212 23.1051 28.8787 23.0478 28.8334 22.9926C28.7881 22.9373 28.7401 22.8844 28.6896 22.8339C28.6391 22.7833 28.5862 22.7354 28.5309 22.6901C28.4757 22.6447 28.4184 22.6022 28.359 22.5626C28.2995 22.5228 28.2383 22.4861 28.1753 22.4525C28.1123 22.4188 28.0478 22.3883 27.9818 22.361C27.9157 22.3336 27.8485 22.3095 27.7802 22.2888C27.7118 22.268 27.6426 22.2507 27.5725 22.2368C27.5024 22.2228 27.4318 22.2124 27.3607 22.2054C27.2896 22.1984 27.2183 22.1949 27.1468 22.1949C27.0753 22.1949 27.0041 22.1984 26.933 22.2054C26.8619 22.2124 26.7913 22.2228 26.7212 22.2368C26.6511 22.2507 26.5818 22.268 26.5135 22.2888C26.4451 22.3095 26.3779 22.3336 26.3119 22.361C26.2458 22.3883 26.1813 22.4188 26.1183 22.4525C26.0553 22.4861 25.9941 22.5228 25.9347 22.5626C25.8752 22.6022 25.8179 22.6447 25.7627 22.6901C25.7074 22.7354 25.6545 22.7833 25.604 22.8339C25.5535 22.8844 25.5055 22.9373 25.4602 22.9926C25.4149 23.0478 25.3724 23.1051 25.3327 23.1645C25.293 23.2239 25.2563 23.2852 25.2226 23.3482C25.1889 23.4112 25.1584 23.4757 25.1311 23.5417C25.1037 23.6077 25.0796 23.6749 25.0589 23.7433C25.0382 23.8117 25.0208 23.8809 25.0069 23.951C24.993 24.0211 24.9825 24.0917 24.9755 24.1628C24.9685 24.2339 24.965 24.3052 24.965 24.3767C24.965 24.4481 24.9685 24.5194 24.9755 24.5905C24.9825 24.6616 24.993 24.7322 25.0069 24.8023C25.0208 24.8724 25.0382 24.9416 25.0589 25.01C25.0796 25.0784 25.1037 25.1456 25.1311 25.2116C25.1584 25.2776 25.1889 25.3422 25.2226 25.4052C25.2563 25.4682 25.293 25.5294 25.3327 25.5888C25.3724 25.6482 25.4149 25.7056 25.4602 25.7608C25.5055 25.816 25.5535 25.8689 25.604 25.9195C25.6545 25.97 25.7074 26.0179 25.7627 26.0633C25.8179 26.1086 25.8752 26.1511 25.9347 26.1908C25.9941 26.2305 26.0553 26.2672 26.1183 26.3009C26.1813 26.3345 26.2458 26.365 26.3119 26.3924C26.3779 26.4197 26.4451 26.4438 26.5135 26.4646C26.5818 26.4853 26.6511 26.5026 26.7212 26.5166C26.7913 26.5305 26.8619 26.541 26.933 26.548C27.0041 26.555 27.0753 26.5585 27.1468 26.5585Z">
</path>
<defs>
<linearGradient id="linear_fill_PNJ7j7j_THxjow6uqSuxR_0" x1="22.098663330078125" y1="39.567840576171875" x2="22.003921508789062" y2="11.944374084472656" gradientUnits="userSpaceOnUse">
<stop offset="0" stop-color="#CCCCCC"  />
<stop offset="1" stop-color="#E6E6E6"  />
</linearGradient>
<linearGradient id="linear_fill_5yiwGqveLNrW4LAzZW2fa_0" x1="13.921035766601562" y1="39.852325439453125" x2="13.524688720703125" y2="8.30511474609375" gradientUnits="userSpaceOnUse">
<stop offset="0" stop-color="#197CF1"  />
<stop offset="1" stop-color="#20BCFA"  />
</linearGradient>
<linearGradient id="linear_fill_Dd3I8WBL9vjoawKVT7NCR_0" x1="18.025238037109375" y1="39.754241943359375" x2="17.593780517578125" y2="9.648277282714844" gradientUnits="userSpaceOnUse">
<stop offset="0" stop-color="#CCCCCC"  />
<stop offset="1" stop-color="#E6E6E6"  />
</linearGradient>
<linearGradient id="linear_fill_qu-6gvTqtT82vMVwoeTmK_0" x1="16.751358032226562" y1="39.916015625" x2="16.242111206054688" y2="9.512336730957031" gradientUnits="userSpaceOnUse">
<stop offset="0" stop-color="#CCCCCC"  />
<stop offset="1" stop-color="#F5F2F5"  />
</linearGradient>
<linearGradient id="linear_fill_2LRN4xE94vsuDCTMAjaey_0" x1="21.980010986328125" y1="39.904052734375" x2="22.689926147460938" y2="11.737548828125" gradientUnits="userSpaceOnUse">
<stop offset="0" stop-color="#2A97FF"  />
<stop offset="1" stop-color="#20BCFA"  />
</linearGradient>
</defs>
</svg>
