<svg xmlns="http://www.w3.org/2000/svg" xmlns:xlink="http://www.w3.org/1999/xlink" width="48" height="48" viewBox="0 0 48 48" fill="none">
<path     fill="url(#linear_fill_Sn1Fl4CdRJPOdGvvTOkh6_0)"  d="M6.54397 11.6563C5.80881 11.6563 5.21765 12.2491 5.21765 12.9843L5.21765 38.5279C5.21765 39.263 5.80881 39.8559 6.54397 39.8559L23.7505 39.8559L24.956 39.8559L42.1625 39.8559C42.8977 39.8559 43.4888 39.263 43.4888 38.5279L43.4888 12.9843C43.4888 12.2491 42.8977 11.6563 42.1625 11.6563L24.956 11.6563L23.7505 11.6563L6.54397 11.6563Z">
</path>
<path     fill="url(#linear_fill_KSSFpWy84cITYLPN93_8n_0)"  d="M18.4745 8.02054C18.3718 8.01785 18.2479 8.02211 18.0867 8.02211L5.91781 8.02211C5.5363 8.02211 5.22868 8.3319 5.22868 8.71595L5.22868 12.9449C5.22811 12.9609 5.22397 12.9759 5.22397 12.992L5.22397 38.5684C5.22397 39.3045 5.81748 39.898 6.55357 39.898L42.2519 39.898C42.988 39.898 43.5799 39.3045 43.5799 38.5684L43.5799 12.992C43.5799 12.2559 42.988 11.6624 42.2519 11.6624L20.9359 11.6624C20.9232 11.6455 20.9147 11.6365 20.9013 11.6185C20.4095 10.9558 19.6667 9.16927 19.1824 8.52287C18.8909 8.09841 18.7824 8.02861 18.4745 8.02054Z">
</path>
<path     fill="url(#linear_fill_hRhMbwtG6O8cGfUeI8wbz_0)"  d="M7.49915 9.4567L17.2375 9.4567C17.5145 9.4567 17.7375 9.6797 17.7375 9.9567L17.7375 11.0657C17.7375 11.3427 17.5145 11.5657 17.2375 11.5657L7.49915 11.5657C7.22215 11.5657 6.99915 11.3427 6.99915 11.0657L6.99915 9.9567C6.99915 9.6797 7.22215 9.4567 7.49915 9.4567Z">
</path>
<path     fill="url(#linear_fill_G9GwKGALqo6KXau8u_8fq_0)"  d="M5.58046 12.8508C4.94207 12.8508 4.3853 13.3947 4.42871 14.0656L5.94075 37.4319C5.98417 38.1028 6.4541 38.6467 7.09249 38.6467L22.0342 38.6467L26.4114 38.6467L41.353 38.6467C41.9914 38.6467 42.4614 38.1028 42.5048 37.4319L44.0168 14.0656C44.0602 13.3947 43.5034 12.8508 42.8651 12.8508L26.4114 12.8508L22.0342 12.8508L5.58046 12.8508Z">
</path>
<path     fill="url(#linear_fill_bR7Say1vt2KJ6VJvDRNFw_0)"  d="M5.12368 14.5912C4.46912 14.5912 3.90931 15.133 3.94277 15.8028L5.08972 38.7687C5.12317 39.4385 5.61607 39.9803 6.27062 39.9803L21.9261 39.9803L26.4141 39.9803L42.4531 39.9324C43.1077 39.9304 43.6078 39.3909 43.6341 38.7208L44.5331 15.8028C44.5594 15.1327 44.0067 14.5912 43.3522 14.5912L26.4819 14.5912L21.9939 14.5912L5.12368 14.5912Z">
</path>
<path d="M30.333 26.9048L29.1901 26.9048L29.1901 23.8572C29.1901 23.0115 28.5044 22.3334 27.6663 22.3334L24.6187 22.3334L24.6187 21.1905C24.6187 21.1282 24.6157 21.0659 24.6095 21.0038C24.6034 20.9417 24.5943 20.8801 24.5821 20.8189C24.5699 20.7578 24.5548 20.6973 24.5367 20.6376C24.5186 20.5779 24.4976 20.5193 24.4737 20.4616C24.4499 20.404 24.4232 20.3476 24.3938 20.2926C24.3644 20.2376 24.3323 20.1841 24.2977 20.1323C24.2631 20.0804 24.2259 20.0304 24.1863 19.9822C24.1467 19.9339 24.1049 19.8877 24.0608 19.8437C24.0167 19.7995 23.9705 19.7577 23.9223 19.7181C23.8741 19.6785 23.824 19.6414 23.7721 19.6068C23.7203 19.5721 23.6668 19.5401 23.6118 19.5107C23.5568 19.4813 23.5005 19.4546 23.4428 19.4308C23.3852 19.4069 23.3266 19.3859 23.2668 19.3678C23.2072 19.3496 23.1467 19.3345 23.0855 19.3224C23.0243 19.3102 22.9627 19.301 22.9006 19.295C22.8386 19.2888 22.7763 19.2858 22.7139 19.2858C22.6515 19.2858 22.5893 19.2888 22.5272 19.295C22.4652 19.301 22.4035 19.3102 22.3423 19.3224C22.2811 19.3345 22.2207 19.3496 22.161 19.3678C22.1013 19.3859 22.0426 19.4069 21.985 19.4308C21.9274 19.4546 21.871 19.4813 21.816 19.5107C21.761 19.5401 21.7076 19.5721 21.6557 19.6068C21.6039 19.6414 21.5538 19.6785 21.5055 19.7181C21.4573 19.7577 21.4112 19.7995 21.367 19.8437C21.323 19.8877 21.2811 19.9339 21.2415 19.9822C21.2019 20.0304 21.1648 20.0804 21.1302 20.1323C21.0956 20.1841 21.0635 20.2376 21.0341 20.2926C21.0047 20.3476 20.978 20.404 20.9541 20.4616C20.9303 20.5193 20.9093 20.5779 20.8912 20.6376C20.8731 20.6973 20.8579 20.7578 20.8457 20.8189C20.8336 20.8801 20.8245 20.9417 20.8183 21.0038C20.8122 21.0659 20.8091 21.1282 20.8091 21.1905L20.8091 22.3334L17.7615 22.3334C17.7117 22.3334 17.6619 22.3358 17.6122 22.3407C17.5626 22.3456 17.5132 22.353 17.4642 22.3627C17.4153 22.3724 17.367 22.3845 17.3192 22.399C17.2715 22.4135 17.2246 22.4303 17.1784 22.4494C17.1323 22.4684 17.0872 22.4898 17.0432 22.5133C16.9992 22.5368 16.9565 22.5625 16.9149 22.5902C16.8735 22.6179 16.8334 22.6476 16.7948 22.6793C16.7563 22.711 16.7194 22.7444 16.684 22.7797C16.6488 22.815 16.6153 22.8519 16.5836 22.8905C16.552 22.9291 16.5223 22.9691 16.4945 23.0106C16.4668 23.0521 16.4412 23.0949 16.4177 23.1389C16.3942 23.1829 16.3729 23.228 16.3537 23.2741C16.3347 23.3202 16.3179 23.3671 16.3033 23.4149C16.2889 23.4626 16.2768 23.511 16.267 23.5599C16.2573 23.6088 16.25 23.6581 16.2451 23.7078C16.2402 23.7575 16.2377 23.8073 16.2377 23.8572L16.2377 26.7524L17.3806 26.7524C18.5234 26.7524 19.4377 27.6667 19.4377 28.8096C19.4377 29.9524 18.5234 30.8667 17.3806 30.8667L16.2377 30.8667L16.2377 33.762C16.2377 33.8119 16.2402 33.8616 16.2451 33.9113C16.25 33.961 16.2573 34.0103 16.267 34.0592C16.2768 34.1082 16.2889 34.1566 16.3033 34.2043C16.3179 34.252 16.3347 34.299 16.3537 34.3451C16.3729 34.3912 16.3942 34.4363 16.4176 34.4803C16.4412 34.5243 16.4668 34.567 16.4945 34.6085C16.5223 34.65 16.552 34.6901 16.5836 34.7287C16.6153 34.7672 16.6488 34.8042 16.684 34.8395C16.7194 34.8748 16.7563 34.9082 16.7948 34.9399C16.8334 34.9716 16.8735 35.0013 16.9149 35.029C16.9565 35.0567 16.9992 35.0823 17.0432 35.1058C17.0872 35.1293 17.1323 35.1507 17.1784 35.1698C17.2246 35.1889 17.2715 35.2057 17.3192 35.2202C17.367 35.2347 17.4153 35.2468 17.4642 35.2565C17.5132 35.2662 17.5626 35.2735 17.6122 35.2784C17.6619 35.2833 17.7117 35.2858 17.7615 35.2858L20.6568 35.2858L20.6568 34.1429C20.6568 33.0001 21.5711 32.0858 22.7139 32.0858C23.8568 32.0858 24.771 33.0001 24.771 34.1429L24.771 35.2858L27.6663 35.2858C27.7162 35.2858 27.7659 35.2833 27.8156 35.2784C27.8653 35.2735 27.9147 35.2662 27.9636 35.2565C28.0125 35.2468 28.0609 35.2347 28.1086 35.2202C28.1564 35.2057 28.2033 35.1889 28.2494 35.1698C28.2955 35.1507 28.3406 35.1294 28.3846 35.1059C28.4286 35.0824 28.4714 35.0567 28.5129 35.029C28.5544 35.0013 28.5944 34.9716 28.633 34.9399C28.6716 34.9082 28.7085 34.8748 28.7438 34.8395C28.7791 34.8042 28.8125 34.7672 28.8442 34.7287C28.8759 34.6901 28.9056 34.6501 28.9333 34.6086C28.961 34.5671 28.9867 34.5243 29.0102 34.4803C29.0337 34.4363 29.055 34.3912 29.0741 34.3451C29.0932 34.299 29.11 34.252 29.1245 34.2043C29.139 34.1566 29.1511 34.1082 29.1608 34.0593C29.1705 34.0103 29.1779 33.961 29.1828 33.9113C29.1877 33.8616 29.1901 33.8119 29.1901 33.762L29.1901 30.7143L30.333 30.7143C30.3953 30.7143 30.4576 30.7113 30.5197 30.7052C30.5818 30.6991 30.6434 30.6899 30.7046 30.6777C30.7657 30.6656 30.8262 30.6504 30.8859 30.6323C30.9456 30.6142 31.0042 30.5933 31.0619 30.5694C31.1195 30.5455 31.1758 30.5188 31.2309 30.4894C31.2859 30.46 31.3393 30.428 31.3912 30.3933C31.4431 30.3587 31.4931 30.3216 31.5413 30.282C31.5896 30.2424 31.6357 30.2006 31.6798 30.1565C31.7239 30.1124 31.7658 30.0662 31.8054 30.018C31.8449 29.9697 31.882 29.9197 31.9167 29.8678C31.9514 29.8159 31.9834 29.7625 32.0128 29.7075C32.0422 29.6525 32.0688 29.5962 32.0927 29.5385C32.1166 29.4809 32.1376 29.4222 32.1557 29.3625C32.1738 29.3028 32.189 29.2424 32.2011 29.1812C32.2133 29.12 32.2224 29.0584 32.2285 28.9963C32.2346 28.9342 32.2377 28.872 32.2377 28.8096C32.2377 28.7472 32.2346 28.685 32.2285 28.6229C32.2224 28.5608 32.2133 28.4992 32.2011 28.438C32.189 28.3768 32.1738 28.3164 32.1557 28.2567C32.1376 28.197 32.1166 28.1383 32.0927 28.0807C32.0688 28.023 32.0422 27.9667 32.0128 27.9117C31.9834 27.8567 31.9514 27.8033 31.9167 27.7514C31.882 27.6995 31.8449 27.6495 31.8054 27.6012C31.7658 27.553 31.7239 27.5068 31.6798 27.4627C31.6357 27.4185 31.5896 27.3767 31.5413 27.3372C31.4931 27.2976 31.4431 27.2605 31.3912 27.2258C31.3393 27.1911 31.2859 27.1591 31.2309 27.1297C31.1758 27.1003 31.1195 27.0737 31.0619 27.0498C31.0042 27.0259 30.9456 27.0049 30.8859 26.9868C30.8262 26.9687 30.7657 26.9536 30.7046 26.9414C30.6434 26.9293 30.5818 26.9201 30.5197 26.914C30.4576 26.9079 30.3953 26.9048 30.333 26.9048Z"   fill="#FFFFFF" >
</path>
<defs>
<linearGradient id="linear_fill_Sn1Fl4CdRJPOdGvvTOkh6_0" x1="22.098663330078125" y1="39.567840576171875" x2="22.003936767578125" y2="11.944366455078125" gradientUnits="userSpaceOnUse">
<stop offset="0" stop-color="#CCCCCC"  />
<stop offset="1" stop-color="#E6E6E6"  />
</linearGradient>
<linearGradient id="linear_fill_KSSFpWy84cITYLPN93_8n_0" x1="13.9210205078125" y1="39.852325439453125" x2="13.524688720703125" y2="8.30511474609375" gradientUnits="userSpaceOnUse">
<stop offset="0" stop-color="#197CF1"  />
<stop offset="1" stop-color="#20BCFA"  />
</linearGradient>
<linearGradient id="linear_fill_hRhMbwtG6O8cGfUeI8wbz_0" x1="18.02520751953125" y1="39.7542724609375" x2="17.59375" y2="9.648284912109375" gradientUnits="userSpaceOnUse">
<stop offset="0" stop-color="#CCCCCC"  />
<stop offset="1" stop-color="#E6E6E6"  />
</linearGradient>
<linearGradient id="linear_fill_G9GwKGALqo6KXau8u_8fq_0" x1="16.751373291015625" y1="39.916015625" x2="16.242095947265625" y2="9.512344360351562" gradientUnits="userSpaceOnUse">
<stop offset="0" stop-color="#CCCCCC"  />
<stop offset="1" stop-color="#F5F2F5"  />
</linearGradient>
<linearGradient id="linear_fill_bR7Say1vt2KJ6VJvDRNFw_0" x1="21.97998046875" y1="39.904052734375" x2="22.689910888671875" y2="11.737548828125" gradientUnits="userSpaceOnUse">
<stop offset="0" stop-color="#2A97FF"  />
<stop offset="1" stop-color="#20BCFA"  />
</linearGradient>
</defs>
</svg>
