<svg xmlns="http://www.w3.org/2000/svg" width="16" height="16" viewBox="0 0 64 64">
  <metadata><?xpacket begin="﻿" id="W5M0MpCehiHzreSzNTczkc9d"?>
<x:xmpmeta xmlns:x="adobe:ns:meta/" x:xmptk="Adobe XMP Core 5.6-c138 79.159824, 2016/09/14-01:09:01        ">
   <rdf:RDF xmlns:rdf="http://www.w3.org/1999/02/22-rdf-syntax-ns#">
      <rdf:Description rdf:about=""/>
   </rdf:RDF>
</x:xmpmeta>
                                                                                                    
                                                                                                    
                                                                                                    
                                                                                                    
                                                                                                    
                                                                                                    
                                                                                                    
                                                                                                    
                                                                                                    
                                                                                                    
                                                                                                    
                                                                                                    
                                                                                                    
                                                                                                    
                                                                                                    
                                                                                                    
                                                                                                    
                                                                                                    
                                                                                                    
                                                                                                    
                           
<?xpacket end="w"?></metadata>
<defs>
    <style>
      .cls-1 {
        fill-rule: evenodd;
      }
    </style>
  </defs>
  <g id="preview">
    <path id="形状_1" data-name="形状 1" class="cls-1" d="M25,30H9a3.639,3.639,0,0,1-4-4V10A3.654,3.654,0,0,1,9,6H25a3.639,3.639,0,0,1,4,4V26a3.654,3.654,0,0,1-4,4h0Zm30,0H39a3.639,3.639,0,0,1-4-4V10a3.639,3.639,0,0,1,4-4H55a3.639,3.639,0,0,1,4,4V26c-0.034,2.561-1.471,4-4,4h0ZM25,59H9c-2.529.02-4-1.453-4-4.12L5,39a3.639,3.639,0,0,1,4-4H25a3.639,3.639,0,0,1,4,4V55a3.654,3.654,0,0,1-4,4h0Zm30,0H39a3.639,3.639,0,0,1-4-4V39a3.639,3.639,0,0,1,4-4H55c2.529,0,3.984,1.971,3.984,4.531L59,54c-0.034,2.526-1.471,5-4,5h0Z"/>
  </g>
</svg>
