<svg xmlns="http://www.w3.org/2000/svg" width="15.998" height="15.998" viewBox="0 0 66 66">
  <metadata><?xpacket begin="﻿" id="W5M0MpCehiHzreSzNTczkc9d"?>
<x:xmpmeta xmlns:x="adobe:ns:meta/" x:xmptk="Adobe XMP Core 5.6-c138 79.159824, 2016/09/14-01:09:01        ">
   <rdf:RDF xmlns:rdf="http://www.w3.org/1999/02/22-rdf-syntax-ns#">
      <rdf:Description rdf:about=""/>
   </rdf:RDF>
</x:xmpmeta>
                                                                                                    
                                                                                                    
                                                                                                    
                                                                                                    
                                                                                                    
                                                                                                    
                                                                                                    
                                                                                                    
                                                                                                    
                                                                                                    
                                                                                                    
                                                                                                    
                                                                                                    
                                                                                                    
                                                                                                    
                                                                                                    
                                                                                                    
                                                                                                    
                                                                                                    
                                                                                                    
                           
<?xpacket end="w"?></metadata>
<defs>
    <style>
      .cls-1 {
        fill-rule: evenodd;
      }
    </style>
  </defs>
  <g id="language">
    <path id="A" class="cls-1" d="M52,58H15A10,10,0,0,1,5,48V19A10,10,0,0,1,15,9H52A10,10,0,0,1,62,19V48A10,10,0,0,1,52,58Zm7-36A10,10,0,0,0,49,12H18A10,10,0,0,0,8,22V45A10,10,0,0,0,18,55H49A10,10,0,0,0,59,45V22ZM23,47H44v2H23V47ZM37,35H30l-2,7H24l7-25h5l7,25H39Zm-2.469-9.733C34.083,23.668,34.352,22.5,34,21H33c-0.352,1.5-.485,2.732-0.9,4.235L31,32h5Z"/>
  </g>
</svg>
