<?xml version="1.0" encoding="utf-8"?>
<!-- Generator: Adobe Illustrator 22.1.0, SVG Export Plug-In . SVG Version: 6.00 Build 0)  -->
<svg version="1.1" id="图层_1" xmlns="http://www.w3.org/2000/svg" xmlns:xlink="http://www.w3.org/1999/xlink" x="0px" y="0px"
	 viewBox="0 0 48 48" enable-background="new 0 0 48 48" xml:space="preserve">
<path fill-opacity="0.6667" d="M17.2,6.2c-0.1,0-0.3,0-0.4,0h-14C2.4,6.2,2,6.6,2,7v4.9c0,0,0,0,0,0.1v29.3c0,0.8,0.7,1.5,1.5,1.5
	h41c0.8,0,1.5-0.7,1.5-1.5V11.9c0-0.8-0.7-1.5-1.5-1.5H20c0,0,0,0,0-0.1c-0.6-0.8-1.4-2.8-2-3.6C17.7,6.3,17.6,6.2,17.2,6.2
	L17.2,6.2z"/>
<linearGradient id="SVGID_1_" gradientUnits="userSpaceOnUse" x1="24.6402" y1="5.7874" x2="24.1471" y2="45.0386" gradientTransform="matrix(0.922 0 0 -0.922 1.4826 46.9144)">
	<stop  offset="0" style="stop-color:#197CF1"/>
	<stop  offset="1" style="stop-color:#20BCFA"/>
</linearGradient>
<path fill="url(#SVGID_1_)" d="M17.2,5.2c-0.1,0-0.3,0-0.4,0h-14C2.4,5.2,2,5.6,2,6v4.9c0,0,0,0,0,0.1v29.3c0,0.8,0.7,1.5,1.5,1.5
	h41c0.8,0,1.5-0.7,1.5-1.5V10.9c0-0.8-0.7-1.5-1.5-1.5H20c0,0,0,0,0-0.1c-0.6-0.8-1.4-2.8-2-3.6C17.7,5.3,17.6,5.2,17.2,5.2z"/>
<g>
	<circle fill="#FFFFFF" fill-opacity="0.852" cx="14" cy="8.5" r="1.8"/>
	<circle fill="#FFFFFF" fill-opacity="0.852" cx="9.6" cy="8.5" r="1.8"/>
	<circle fill="#FFFFFF" fill-opacity="0.852" cx="5.3" cy="8.6" r="1.8"/>
</g>
<g opacity="0.83" enable-background="new    ">
	<g>
		<linearGradient id="SVGID_2_" gradientUnits="userSpaceOnUse" x1="15.527" y1="26.25" x2="32.4308" y2="26.25">
			<stop  offset="0" style="stop-color:#A0D5FF"/>
			<stop  offset="1" style="stop-color:#FFFFFF"/>
		</linearGradient>
		<path fill="url(#SVGID_2_)" d="M24,25c3.1,0,5.6-2.5,5.6-5.6c0-3.1-2.5-5.6-5.6-5.6c-3.1,0-5.6,2.5-5.6,5.6
			C18.3,22.5,20.8,25,24,25L24,25z M32.4,37.3L32.3,37c-0.5-2-1.8-6.6-2.7-7.7c-1.2-2.2-4.7-2.1-4.7-2.1h-2.7c0,0-2.5-0.1-4,2
			c-0.8,1.1-2,5.4-2.5,7.6c-0.1,0.3-0.1,0.5-0.1,0.5c-0.2,0.8,0.3,1.5,1.1,1.5h14.6C32.1,38.8,32.6,38.1,32.4,37.3L32.4,37.3z
			 M32.4,37.3"/>
	</g>
</g>
</svg>
