<svg xmlns="http://www.w3.org/2000/svg" xmlns:xlink="http://www.w3.org/1999/xlink" width="48" height="48" viewBox="0 0 48 48" fill="none">
<path     fill="url(#linear_fill_s4bA6gVzHwgogUMG_4-Ai_0)"  d="M6.54396 11.6563C5.8088 11.6563 5.21764 12.2491 5.21764 12.9843L5.21764 38.5279C5.21764 39.263 5.8088 39.8559 6.54396 39.8559L23.7504 39.8559L24.9559 39.8559L42.1624 39.8559C42.8976 39.8559 43.4887 39.263 43.4887 38.5279L43.4887 12.9843C43.4887 12.2491 42.8976 11.6563 42.1624 11.6563L24.9559 11.6563L23.7504 11.6563L6.54396 11.6563Z">
</path>
<path     fill="url(#linear_fill_repR0x7QWrHHJuPY5JGm6_0)"  d="M18.4745 8.02054C18.3718 8.01785 18.2479 8.02211 18.0867 8.02211L5.91782 8.02211C5.53631 8.02211 5.22869 8.3319 5.22869 8.71595L5.22869 12.9449C5.22812 12.9609 5.22398 12.9759 5.22398 12.992L5.22398 38.5684C5.22398 39.3045 5.81749 39.898 6.55358 39.898L42.2519 39.898C42.988 39.898 43.5799 39.3045 43.5799 38.5684L43.5799 12.992C43.5799 12.2559 42.988 11.6624 42.2519 11.6624L20.9359 11.6624C20.9232 11.6455 20.9147 11.6365 20.9013 11.6185C20.4095 10.9558 19.6667 9.16927 19.1824 8.52287C18.8909 8.09841 18.7824 8.02861 18.4745 8.02054Z">
</path>
<path     fill="url(#linear_fill_Wh1aDydKI3QnHYhzz-3ch_0)"  d="M7.49916 9.4567L17.2376 9.4567C17.5146 9.4567 17.7376 9.6797 17.7376 9.9567L17.7376 11.0657C17.7376 11.3427 17.5146 11.5657 17.2376 11.5657L7.49916 11.5657C7.22216 11.5657 6.99916 11.3427 6.99916 11.0657L6.99916 9.9567C6.99916 9.6797 7.22216 9.4567 7.49916 9.4567Z">
</path>
<path     fill="url(#linear_fill_mcp07poh0g3xLroL89RDW_0)"  d="M5.58046 12.8508C4.94207 12.8508 4.3853 13.3947 4.42871 14.0656L5.94075 37.4319C5.98417 38.1028 6.4541 38.6467 7.09249 38.6467L22.0342 38.6467L26.4114 38.6467L41.353 38.6467C41.9914 38.6467 42.4614 38.1028 42.5048 37.4319L44.0168 14.0656C44.0602 13.3947 43.5034 12.8508 42.8651 12.8508L26.4114 12.8508L22.0342 12.8508L5.58046 12.8508Z">
</path>
<path     fill="url(#linear_fill_9VNDlZvYovywNxXETAJar_0)"  d="M5.12369 14.5912C4.46914 14.5912 3.90933 15.133 3.94279 15.8028L5.08973 38.7687C5.12318 39.4385 5.61608 39.9803 6.27063 39.9803L21.9262 39.9803L26.4142 39.9803L42.4532 39.9324C43.1078 39.9304 43.6079 39.3909 43.6342 38.7208L44.5332 15.8028C44.5595 15.1327 44.0068 14.5912 43.3523 14.5912L26.482 14.5912L21.994 14.5912L5.12369 14.5912Z">
</path>
<path d="M21.5327 29.4656C21.5219 29.3909 21.4819 29.3235 21.4214 29.2783L18.3556 26.9856L21.4214 24.6929C21.4819 24.6477 21.5219 24.5804 21.5327 24.5056C21.5434 24.4309 21.5241 24.355 21.4788 24.2944L20.9918 23.6432C20.8976 23.5173 20.7193 23.4916 20.5934 23.5858L16.3519 26.7577C16.2801 26.8114 16.2378 26.8958 16.2378 26.9856C16.2378 27.0754 16.2801 27.1599 16.3519 27.2136L20.5934 30.3854C20.6445 30.4237 20.7043 30.4421 20.7636 30.4421C20.8503 30.4421 20.9359 30.4028 20.9918 30.328L21.4788 29.6768C21.5241 29.6162 21.5434 29.5403 21.5327 29.4656Z"   fill="#FFFFFF" >
</path>
<path d="M32.1235 26.7577L27.8822 23.5858C27.7563 23.4916 27.578 23.5174 27.4839 23.6432L26.9968 24.2944C26.9516 24.3549 26.9323 24.4309 26.943 24.5056C26.9538 24.5803 26.9937 24.6477 27.0542 24.6929L30.12 26.9856L27.0542 29.2783C26.9937 29.3235 26.9538 29.3909 26.943 29.4656C26.9323 29.5403 26.9515 29.6163 26.9968 29.6768L27.4839 30.328C27.5398 30.4027 27.6254 30.4421 27.7121 30.4421C27.7713 30.4421 27.8311 30.4236 27.8823 30.3854L32.1236 27.2135C32.1954 27.1599 32.2378 27.0754 32.2378 26.9856C32.2378 26.8958 32.1953 26.8113 32.1235 26.7577Z"   fill="#FFFFFF" >
</path>
<path d="M26.9594 21.8928L26.2104 21.576C26.1409 21.5466 26.0625 21.5461 25.9925 21.5744C25.9226 21.6028 25.8667 21.6578 25.8373 21.7273L21.3647 32.3059C21.3034 32.4506 21.3712 32.6177 21.516 32.6789L22.2651 32.9957C22.3004 33.0107 22.3382 33.0181 22.3759 33.0181C22.4123 33.0181 22.4486 33.0111 22.4829 32.9972C22.5529 32.9688 22.6086 32.9138 22.6381 32.8443L27.1108 22.2657C27.1719 22.121 27.1042 21.954 26.9594 21.8928Z"   fill="#FFFFFF" >
</path>
<defs>
<linearGradient id="linear_fill_s4bA6gVzHwgogUMG_4-Ai_0" x1="22.098648071289062" y1="39.567840576171875" x2="22.00391387939453" y2="11.944366455078125" gradientUnits="userSpaceOnUse">
<stop offset="0" stop-color="#CCCCCC"  />
<stop offset="1" stop-color="#E6E6E6"  />
</linearGradient>
<linearGradient id="linear_fill_repR0x7QWrHHJuPY5JGm6_0" x1="13.921028137207031" y1="39.852325439453125" x2="13.524681091308594" y2="8.30511474609375" gradientUnits="userSpaceOnUse">
<stop offset="0" stop-color="#197CF1"  />
<stop offset="1" stop-color="#20BCFA"  />
</linearGradient>
<linearGradient id="linear_fill_Wh1aDydKI3QnHYhzz-3ch_0" x1="18.025230407714844" y1="39.7542724609375" x2="17.593780517578125" y2="9.648284912109375" gradientUnits="userSpaceOnUse">
<stop offset="0" stop-color="#CCCCCC"  />
<stop offset="1" stop-color="#E6E6E6"  />
</linearGradient>
<linearGradient id="linear_fill_mcp07poh0g3xLroL89RDW_0" x1="16.751365661621094" y1="39.916015625" x2="16.242103576660156" y2="9.512344360351562" gradientUnits="userSpaceOnUse">
<stop offset="0" stop-color="#CCCCCC"  />
<stop offset="1" stop-color="#F5F2F5"  />
</linearGradient>
<linearGradient id="linear_fill_9VNDlZvYovywNxXETAJar_0" x1="21.980010986328125" y1="39.904052734375" x2="22.689926147460938" y2="11.737548828125" gradientUnits="userSpaceOnUse">
<stop offset="0" stop-color="#2A97FF"  />
<stop offset="1" stop-color="#20BCFA"  />
</linearGradient>
</defs>
</svg>
