<svg xmlns="http://www.w3.org/2000/svg" xmlns:xlink="http://www.w3.org/1999/xlink" width="48" height="48" viewBox="0 0 48 48" fill="none">
<path     fill="url(#linear_fill_SHookmZQqUn9b282I7IyM_0)"  d="M6.54397 11.6563C5.80881 11.6563 5.21765 12.2491 5.21765 12.9843L5.21765 38.5279C5.21765 39.263 5.80881 39.8559 6.54397 39.8559L23.7505 39.8559L24.956 39.8559L42.1625 39.8559C42.8977 39.8559 43.4888 39.263 43.4888 38.5279L43.4888 12.9843C43.4888 12.2491 42.8977 11.6563 42.1625 11.6563L24.956 11.6563L23.7505 11.6563L6.54397 11.6563Z">
</path>
<path     fill="url(#linear_fill_t3FTiMtG1L8-E1QNacbPk_0)"  d="M18.4745 8.02055C18.3718 8.01786 18.2479 8.02212 18.0867 8.02212L5.91781 8.02212C5.5363 8.02212 5.22868 8.33191 5.22868 8.71596L5.22868 12.9449C5.22811 12.9609 5.22397 12.9759 5.22397 12.992L5.22397 38.5684C5.22397 39.3045 5.81748 39.898 6.55357 39.898L42.2519 39.898C42.988 39.898 43.5799 39.3045 43.5799 38.5684L43.5799 12.992C43.5799 12.2559 42.988 11.6624 42.2519 11.6624L20.9359 11.6624C20.9232 11.6455 20.9147 11.6365 20.9013 11.6185C20.4095 10.9558 19.6667 9.16928 19.1824 8.52288C18.8909 8.09842 18.7824 8.02862 18.4745 8.02055Z">
</path>
<path     fill="url(#linear_fill_46p6ENV5C4365_WmF1HxM_0)"  d="M7.49915 9.45669L17.2375 9.45669C17.5145 9.45669 17.7375 9.67969 17.7375 9.95669L17.7375 11.0657C17.7375 11.3427 17.5145 11.5657 17.2375 11.5657L7.49915 11.5657C7.22215 11.5657 6.99915 11.3427 6.99915 11.0657L6.99915 9.95669C6.99915 9.67969 7.22215 9.45669 7.49915 9.45669Z">
</path>
<path     fill="url(#linear_fill_B2HgI-be_T1MbEtbeDz_y_0)"  d="M5.58046 12.8508C4.94207 12.8508 4.3853 13.3947 4.42871 14.0656L5.94075 37.4319C5.98417 38.1028 6.4541 38.6467 7.09249 38.6467L22.0342 38.6467L26.4114 38.6467L41.353 38.6467C41.9914 38.6467 42.4614 38.1028 42.5048 37.4319L44.0168 14.0656C44.0602 13.3947 43.5034 12.8508 42.8651 12.8508L26.4114 12.8508L22.0342 12.8508L5.58046 12.8508Z">
</path>
<path     fill="url(#linear_fill_Q5utjkg5XdjYXyGcQo66v_0)"  d="M5.12368 14.5912C4.46912 14.5912 3.90931 15.133 3.94277 15.8028L5.08972 38.7687C5.12317 39.4385 5.61607 39.9803 6.27062 39.9803L21.9261 39.9803L26.4141 39.9803L42.4531 39.9324C43.1077 39.9304 43.6078 39.3909 43.6341 38.7208L44.5331 15.8028C44.5594 15.1327 44.0067 14.5912 43.3522 14.5912L26.4819 14.5912L21.9939 14.5912L5.12368 14.5912Z">
</path>
<path     fill="url(#linear_fill_OnORPOwIzxhg_ka4-kpcA_0)"  d="M24.2513 23.1886C22.3829 23.1886 20.7998 24.4568 20.3121 26.1743C19.8871 25.2628 18.967 24.6217 17.9018 24.6217C16.4396 24.6217 15.2377 25.8236 15.2377 27.2858C15.2377 28.748 16.4396 29.951 17.9018 29.951C18.967 29.951 19.8871 29.3091 20.3121 28.3972C20.7999 30.1146 22.383 31.3829 24.2513 31.3829C26.1074 31.3829 27.6826 30.1314 28.1814 28.4311C28.6135 29.3243 29.5221 29.951 30.5736 29.951C32.0358 29.951 33.2377 28.748 33.2377 27.2858C33.2377 25.8236 32.0358 24.6217 30.5736 24.6217C29.5221 24.6217 28.6135 25.2475 28.1814 26.1405C27.6826 24.4401 26.1075 23.1886 24.2513 23.1886ZM24.2513 24.7525C25.6597 24.7525 26.7856 25.8773 26.7856 27.2858C26.7856 28.6942 25.6597 29.8201 24.2513 29.8201C22.8428 29.8201 21.718 28.6942 21.718 27.2858C21.718 25.8773 22.8428 24.7525 24.2513 24.7525ZM17.9018 26.1856C18.5189 26.1856 19.002 26.6687 19.002 27.2858C19.002 27.9028 18.5189 28.3871 17.9018 28.3871C17.2848 28.3871 16.8017 27.9028 16.8017 27.2858C16.8017 26.6687 17.2848 26.1856 17.9018 26.1856ZM30.5736 26.1856C31.1907 26.1856 31.6738 26.6687 31.6738 27.2858C31.6738 27.9028 31.1907 28.3871 30.5736 28.3871C29.9565 28.3871 29.4723 27.9028 29.4723 27.2858C29.4723 26.6687 29.9565 26.1856 30.5736 26.1856Z">
</path>
<defs>
<linearGradient id="linear_fill_SHookmZQqUn9b282I7IyM_0" x1="22.098663330078125" y1="39.567832946777344" x2="22.003936767578125" y2="11.94437026977539" gradientUnits="userSpaceOnUse">
<stop offset="0" stop-color="#CCCCCC"  />
<stop offset="1" stop-color="#E6E6E6"  />
</linearGradient>
<linearGradient id="linear_fill_t3FTiMtG1L8-E1QNacbPk_0" x1="13.9210205078125" y1="39.852325439453125" x2="13.524688720703125" y2="8.305118560791016" gradientUnits="userSpaceOnUse">
<stop offset="0" stop-color="#197CF1"  />
<stop offset="1" stop-color="#20BCFA"  />
</linearGradient>
<linearGradient id="linear_fill_46p6ENV5C4365_WmF1HxM_0" x1="18.02520751953125" y1="39.754249572753906" x2="17.59375" y2="9.648277282714844" gradientUnits="userSpaceOnUse">
<stop offset="0" stop-color="#CCCCCC"  />
<stop offset="1" stop-color="#E6E6E6"  />
</linearGradient>
<linearGradient id="linear_fill_B2HgI-be_T1MbEtbeDz_y_0" x1="16.751373291015625" y1="39.916015625" x2="16.242095947265625" y2="9.512336730957031" gradientUnits="userSpaceOnUse">
<stop offset="0" stop-color="#CCCCCC"  />
<stop offset="1" stop-color="#F5F2F5"  />
</linearGradient>
<linearGradient id="linear_fill_Q5utjkg5XdjYXyGcQo66v_0" x1="21.97998046875" y1="39.90404510498047" x2="22.689910888671875" y2="11.737545013427734" gradientUnits="userSpaceOnUse">
<stop offset="0" stop-color="#2A97FF"  />
<stop offset="1" stop-color="#20BCFA"  />
</linearGradient>
<linearGradient id="linear_fill_OnORPOwIzxhg_ka4-kpcA_0" x1="23.841522216796875" y1="40.227012634277344" x2="23.851776123046875" y2="20.886276245117188" gradientUnits="userSpaceOnUse">
<stop offset="0" stop-color="#F6FBFF"  />
<stop offset="1" stop-color="#EAEFF2"  />
</linearGradient>
</defs>
</svg>
