<svg xmlns="http://www.w3.org/2000/svg" xmlns:xlink="http://www.w3.org/1999/xlink" width="48" height="48" viewBox="0 0 48 48" fill="none">
<path     fill="url(#linear_fill_yNgi8YBkFhbIBnaJ0SBY__0)"  d="M6.54396 11.6563C5.8088 11.6563 5.21764 12.2491 5.21764 12.9843L5.21764 38.5279C5.21764 39.263 5.8088 39.8559 6.54396 39.8559L23.7504 39.8559L24.9559 39.8559L42.1624 39.8559C42.8976 39.8559 43.4887 39.263 43.4887 38.5279L43.4887 12.9843C43.4887 12.2491 42.8976 11.6563 42.1624 11.6563L24.9559 11.6563L23.7504 11.6563L6.54396 11.6563Z">
</path>
<path     fill="url(#linear_fill_3F5rK7iIEE7uupEdnFQQc_0)"  d="M18.4745 8.02054C18.3718 8.01785 18.2479 8.02211 18.0867 8.02211L5.91782 8.02211C5.53631 8.02211 5.22869 8.3319 5.22869 8.71595L5.22869 12.9449C5.22812 12.9609 5.22398 12.9759 5.22398 12.992L5.22398 38.5684C5.22398 39.3045 5.81749 39.898 6.55358 39.898L42.2519 39.898C42.988 39.898 43.5799 39.3045 43.5799 38.5684L43.5799 12.992C43.5799 12.2559 42.988 11.6624 42.2519 11.6624L20.9359 11.6624C20.9232 11.6455 20.9147 11.6365 20.9013 11.6185C20.4095 10.9558 19.6667 9.16927 19.1824 8.52287C18.8909 8.09841 18.7824 8.02861 18.4745 8.02054Z">
</path>
<path     fill="url(#linear_fill_GVRg8FqPnu6xlyZawTdS5_0)"  d="M7.49916 9.4567L17.2376 9.4567C17.5146 9.4567 17.7376 9.6797 17.7376 9.9567L17.7376 11.0657C17.7376 11.3427 17.5146 11.5657 17.2376 11.5657L7.49916 11.5657C7.22216 11.5657 6.99916 11.3427 6.99916 11.0657L6.99916 9.9567C6.99916 9.6797 7.22216 9.4567 7.49916 9.4567Z">
</path>
<path     fill="url(#linear_fill_7My33zw_oy7uTa33aRveI_0)"  d="M5.58046 12.8508C4.94207 12.8508 4.3853 13.3947 4.42871 14.0656L5.94075 37.4319C5.98417 38.1028 6.4541 38.6467 7.09249 38.6467L22.0342 38.6467L26.4114 38.6467L41.353 38.6467C41.9914 38.6467 42.4614 38.1028 42.5048 37.4319L44.0168 14.0656C44.0602 13.3947 43.5034 12.8508 42.8651 12.8508L26.4114 12.8508L22.0342 12.8508L5.58046 12.8508Z">
</path>
<path     fill="url(#linear_fill_9Lk8HftVvrt4Go-zmN51g_0)"  d="M5.12369 14.5912C4.46914 14.5912 3.90933 15.133 3.94279 15.8028L5.08973 38.7687C5.12318 39.4385 5.61608 39.9803 6.27063 39.9803L21.9262 39.9803L26.4142 39.9803L42.4532 39.9324C43.1078 39.9304 43.6079 39.3909 43.6342 38.7208L44.5332 15.8028C44.5595 15.1327 44.0068 14.5912 43.3523 14.5912L26.482 14.5912L21.994 14.5912L5.12369 14.5912Z">
</path>
<path d="M30.5404 32.5577L27.9308 29.5839C28.667 28.6566 29.0741 27.5959 29.152 26.4022C29.2026 25.6263 29.1003 24.8744 28.8453 24.1467C28.5904 23.4189 28.2232 22.7819 27.7439 22.2357C27.2645 21.6895 26.6808 21.2427 25.9923 20.8954C25.3037 20.548 24.5714 20.3491 23.7955 20.2985C23.0196 20.2479 22.2677 20.35 21.54 20.605C20.8122 20.8599 20.1752 21.2271 19.629 21.7065C19.0828 22.1858 18.636 22.7698 18.2887 23.4582C17.9413 24.1468 17.7424 24.8789 17.6918 25.6548C17.6412 26.4307 17.7434 27.1824 17.9984 27.9103C18.2533 28.6381 18.6205 29.2749 19.0998 29.8211C19.5791 30.3675 20.1631 30.8142 20.8515 31.1615C21.5401 31.5089 22.2722 31.7078 23.0481 31.7585C24.242 31.8363 25.3465 31.5704 26.3616 30.9609L28.9718 33.9264C29.1536 34.1454 29.3909 34.2644 29.6841 34.2835C29.9662 34.3019 30.2173 34.2147 30.4367 34.022C30.6563 33.8293 30.7754 33.5918 30.7938 33.3097C30.8126 33.0223 30.7282 32.7715 30.5404 32.5577ZM25.8299 28.7724C25.0698 29.4395 24.1879 29.7402 23.184 29.6747C22.1802 29.6093 21.3449 29.1964 20.6778 28.4364C20.0108 27.6763 19.71 26.7945 19.7755 25.7906C19.841 24.7868 20.2538 23.9514 21.0138 23.2844C21.7738 22.6173 22.6558 22.3166 23.6596 22.3821C24.6634 22.4475 25.4988 22.8604 26.1659 23.6204C26.833 24.3804 27.1338 25.2624 27.0684 26.2662C27.0029 27.2701 26.59 28.1054 25.8299 28.7724Z"   fill="#FFFFFF" >
</path>
<defs>
<linearGradient id="linear_fill_yNgi8YBkFhbIBnaJ0SBY__0" x1="22.098648071289062" y1="39.567840576171875" x2="22.00391387939453" y2="11.944366455078125" gradientUnits="userSpaceOnUse">
<stop offset="0" stop-color="#CCCCCC"  />
<stop offset="1" stop-color="#E6E6E6"  />
</linearGradient>
<linearGradient id="linear_fill_3F5rK7iIEE7uupEdnFQQc_0" x1="13.921028137207031" y1="39.852325439453125" x2="13.524681091308594" y2="8.30511474609375" gradientUnits="userSpaceOnUse">
<stop offset="0" stop-color="#197CF1"  />
<stop offset="1" stop-color="#20BCFA"  />
</linearGradient>
<linearGradient id="linear_fill_GVRg8FqPnu6xlyZawTdS5_0" x1="18.025230407714844" y1="39.7542724609375" x2="17.593780517578125" y2="9.648284912109375" gradientUnits="userSpaceOnUse">
<stop offset="0" stop-color="#CCCCCC"  />
<stop offset="1" stop-color="#E6E6E6"  />
</linearGradient>
<linearGradient id="linear_fill_7My33zw_oy7uTa33aRveI_0" x1="16.751361846923828" y1="39.916015625" x2="16.242107391357422" y2="9.512344360351562" gradientUnits="userSpaceOnUse">
<stop offset="0" stop-color="#CCCCCC"  />
<stop offset="1" stop-color="#F5F2F5"  />
</linearGradient>
<linearGradient id="linear_fill_9Lk8HftVvrt4Go-zmN51g_0" x1="21.980010986328125" y1="39.904052734375" x2="22.689926147460938" y2="11.737548828125" gradientUnits="userSpaceOnUse">
<stop offset="0" stop-color="#2A97FF"  />
<stop offset="1" stop-color="#20BCFA"  />
</linearGradient>
</defs>
</svg>
