<svg xmlns="http://www.w3.org/2000/svg" xmlns:xlink="http://www.w3.org/1999/xlink" width="48" height="48" viewBox="0 0 48 48" fill="none">
<path     fill="url(#linear_fill_IuFrkxNGFxMo3rT8u5owF_0)"  d="M6.54397 11.6563C5.80881 11.6563 5.21765 12.2491 5.21765 12.9843L5.21765 38.5279C5.21765 39.263 5.80881 39.8559 6.54397 39.8559L23.7505 39.8559L24.956 39.8559L42.1625 39.8559C42.8977 39.8559 43.4888 39.263 43.4888 38.5279L43.4888 12.9843C43.4888 12.2491 42.8977 11.6563 42.1625 11.6563L24.956 11.6563L23.7505 11.6563L6.54397 11.6563Z">
</path>
<path     fill="url(#linear_fill_-QVKNrhgfm7fI4Ootb7AX_0)"  d="M18.4745 8.02054C18.3718 8.01785 18.2479 8.02211 18.0867 8.02211L5.91782 8.02211C5.53631 8.02211 5.22869 8.3319 5.22869 8.71595L5.22869 12.9449C5.22812 12.9609 5.22398 12.9759 5.22398 12.992L5.22398 38.5684C5.22398 39.3045 5.81749 39.898 6.55358 39.898L42.2519 39.898C42.988 39.898 43.5799 39.3045 43.5799 38.5684L43.5799 12.992C43.5799 12.2559 42.988 11.6624 42.2519 11.6624L20.9359 11.6624C20.9232 11.6455 20.9147 11.6365 20.9013 11.6185C20.4095 10.9558 19.6667 9.16927 19.1824 8.52287C18.8909 8.09841 18.7824 8.02861 18.4745 8.02054Z">
</path>
<path     fill="url(#linear_fill_yuzVw0DR0kv4g5fyhELt6_0)"  d="M7.49916 9.4567L17.2376 9.4567C17.5146 9.4567 17.7376 9.6797 17.7376 9.9567L17.7376 11.0657C17.7376 11.3427 17.5146 11.5657 17.2376 11.5657L7.49916 11.5657C7.22216 11.5657 6.99916 11.3427 6.99916 11.0657L6.99916 9.9567C6.99916 9.6797 7.22216 9.4567 7.49916 9.4567Z">
</path>
<path     fill="url(#linear_fill_KgbOviYRuqR5ECMj7USsE_0)"  d="M5.58046 12.8508C4.94207 12.8508 4.3853 13.3947 4.42871 14.0656L5.94075 37.4319C5.98417 38.1028 6.4541 38.6467 7.09249 38.6467L22.0342 38.6467L26.4114 38.6467L41.353 38.6467C41.9914 38.6467 42.4614 38.1028 42.5048 37.4319L44.0168 14.0656C44.0602 13.3947 43.5034 12.8508 42.8651 12.8508L26.4114 12.8508L22.0342 12.8508L5.58046 12.8508Z">
</path>
<path     fill="url(#linear_fill_jMJWycUvu1oDI-3vQNeSl_0)"  d="M5.12369 14.5912C4.46914 14.5912 3.90933 15.133 3.94279 15.8028L5.08973 38.7687C5.12318 39.4385 5.61608 39.9803 6.27063 39.9803L21.9262 39.9803L26.4142 39.9803L42.4532 39.9324C43.1078 39.9304 43.6079 39.3909 43.6342 38.7208L44.5332 15.8028C44.5595 15.1327 44.0068 14.5912 43.3523 14.5912L26.482 14.5912L21.994 14.5912L5.12369 14.5912Z">
</path>
<path     fill="#FFFFFF"  d="M21.5586 19.2852C18.9539 19.2852 16.84 21.3871 16.8164 23.9863L13.8613 28.2207C13.7409 28.2086 13.6177 28.2031 13.4941 28.2031C12.8337 28.2031 12.2157 28.3824 11.6855 28.6992L4.45898 26.1465L4.68164 30.582L10.0352 32.4961C10.3815 34.088 11.8009 35.2852 13.4941 35.2852C15.3281 35.2852 16.8423 33.8791 17.0176 32.0898L21.5586 28.7676C24.1774 28.7676 26.3027 26.6494 26.3027 24.0312C26.3027 21.4117 24.1776 19.2852 21.5586 19.2852ZM21.5586 20.8477C23.3133 20.8477 24.7402 22.2766 24.7402 24.0312C24.7402 25.786 23.3133 27.2051 21.5586 27.2051C19.8039 27.2051 18.3789 25.786 18.3789 24.0312C18.3789 22.2766 19.8039 20.8477 21.5586 20.8477ZM21.5723 21.4727C20.17 21.4727 19.0332 22.6133 19.0332 24.0156C19.0332 25.4179 20.17 26.5566 21.5723 26.5566C22.9746 26.5566 24.1133 25.4179 24.1133 24.0156C24.1133 22.6133 22.9746 21.4727 21.5723 21.4727ZM13.4941 29.1406C14.9377 29.1406 16.0977 30.3006 16.0977 31.7441C16.0976 33.1876 14.9377 34.3477 13.4941 34.3477C12.49 34.3477 11.6244 33.7886 11.1895 32.9609C11.6177 33.1338 12.0449 33.3045 12.4727 33.4785C13.534 33.905 14.7433 33.3917 15.1699 32.3301C15.5965 31.2687 15.0791 30.0632 14.0176 29.6367L12.9316 29.2031C13.1124 29.1641 13.3012 29.1406 13.4941 29.1406Z">
</path>
<defs>
<linearGradient id="linear_fill_IuFrkxNGFxMo3rT8u5owF_0" x1="22.098663330078125" y1="39.567840576171875" x2="22.003921508789062" y2="11.944366455078125" gradientUnits="userSpaceOnUse">
<stop offset="0" stop-color="#CCCCCC"  />
<stop offset="1" stop-color="#E6E6E6"  />
</linearGradient>
<linearGradient id="linear_fill_-QVKNrhgfm7fI4Ootb7AX_0" x1="13.921035766601562" y1="39.852325439453125" x2="13.524688720703125" y2="8.30511474609375" gradientUnits="userSpaceOnUse">
<stop offset="0" stop-color="#197CF1"  />
<stop offset="1" stop-color="#20BCFA"  />
</linearGradient>
<linearGradient id="linear_fill_yuzVw0DR0kv4g5fyhELt6_0" x1="18.025238037109375" y1="39.7542724609375" x2="17.593780517578125" y2="9.648284912109375" gradientUnits="userSpaceOnUse">
<stop offset="0" stop-color="#CCCCCC"  />
<stop offset="1" stop-color="#E6E6E6"  />
</linearGradient>
<linearGradient id="linear_fill_KgbOviYRuqR5ECMj7USsE_0" x1="16.751358032226562" y1="39.916015625" x2="16.242111206054688" y2="9.512344360351562" gradientUnits="userSpaceOnUse">
<stop offset="0" stop-color="#CCCCCC"  />
<stop offset="1" stop-color="#F5F2F5"  />
</linearGradient>
<linearGradient id="linear_fill_jMJWycUvu1oDI-3vQNeSl_0" x1="21.980010986328125" y1="39.904052734375" x2="22.689926147460938" y2="11.737548828125" gradientUnits="userSpaceOnUse">
<stop offset="0" stop-color="#2A97FF"  />
<stop offset="1" stop-color="#20BCFA"  />
</linearGradient>
</defs>
</svg>
