<svg xmlns="http://www.w3.org/2000/svg" xmlns:xlink="http://www.w3.org/1999/xlink" width="48" height="48" viewBox="0 0 48 48" fill="none">
<path     fill="url(#linear_fill_w0Fur2flZDgrxnhiXzbLd_0)"  d="M6.54396 11.6563C5.8088 11.6563 5.21764 12.2491 5.21764 12.9843L5.21764 38.5279C5.21764 39.263 5.8088 39.8559 6.54396 39.8559L23.7504 39.8559L24.9559 39.8559L42.1624 39.8559C42.8976 39.8559 43.4887 39.263 43.4887 38.5279L43.4887 12.9843C43.4887 12.2491 42.8976 11.6563 42.1624 11.6563L24.9559 11.6563L23.7504 11.6563L6.54396 11.6563Z">
</path>
<path     fill="url(#linear_fill_ocTr2LHP5vQMIe-233QoJ_0)"  d="M18.4745 8.02055C18.3718 8.01786 18.2479 8.02212 18.0867 8.02212L5.91782 8.02212C5.53631 8.02212 5.22869 8.33191 5.22869 8.71596L5.22869 12.9449C5.22812 12.9609 5.22398 12.9759 5.22398 12.992L5.22398 38.5684C5.22398 39.3045 5.81749 39.898 6.55358 39.898L42.2519 39.898C42.988 39.898 43.5799 39.3045 43.5799 38.5684L43.5799 12.992C43.5799 12.2559 42.988 11.6624 42.2519 11.6624L20.9359 11.6624C20.9232 11.6455 20.9147 11.6365 20.9013 11.6185C20.4095 10.9558 19.6667 9.16928 19.1824 8.52288C18.8909 8.09842 18.7824 8.02862 18.4745 8.02055Z">
</path>
<path     fill="url(#linear_fill_IiGeJaG4nc9CrqzRXbppz_0)"  d="M7.49916 9.45669L17.2376 9.45669C17.5146 9.45669 17.7376 9.67969 17.7376 9.95669L17.7376 11.0657C17.7376 11.3427 17.5146 11.5657 17.2376 11.5657L7.49916 11.5657C7.22216 11.5657 6.99916 11.3427 6.99916 11.0657L6.99916 9.95669C6.99916 9.67969 7.22216 9.45669 7.49916 9.45669Z">
</path>
<path     fill="url(#linear_fill_QYaY_du0UlgcmXNoyjjBQ_0)"  d="M5.58046 12.8508C4.94207 12.8508 4.3853 13.3947 4.42871 14.0656L5.94075 37.4319C5.98417 38.1028 6.4541 38.6467 7.09249 38.6467L22.0342 38.6467L26.4114 38.6467L41.353 38.6467C41.9914 38.6467 42.4614 38.1028 42.5048 37.4319L44.0168 14.0656C44.0602 13.3947 43.5034 12.8508 42.8651 12.8508L26.4114 12.8508L22.0342 12.8508L5.58046 12.8508Z">
</path>
<path     fill="url(#linear_fill_dwLlZF6o1REPB_-Fja7wY_0)"  d="M5.12369 14.5912C4.46914 14.5912 3.90933 15.133 3.94279 15.8028L5.08973 38.7687C5.12318 39.4385 5.61608 39.9803 6.27063 39.9803L21.9262 39.9803L26.4142 39.9803L42.4532 39.9324C43.1078 39.9304 43.6079 39.3909 43.6342 38.7208L44.5332 15.8028C44.5595 15.1327 44.0068 14.5912 43.3523 14.5912L26.482 14.5912L21.994 14.5912L5.12369 14.5912Z">
</path>
<path     fill="#FFFFFF"  d="M24.1295 25.0585L26.1468 27.0694C26.1468 27.0376 26.1468 26.9994 26.1468 26.9676C26.1468 26.9051 26.1437 26.8427 26.1376 26.7805C26.1315 26.7183 26.1223 26.6566 26.1101 26.5952C26.0979 26.5339 26.0827 26.4733 26.0646 26.4134C26.0465 26.3536 26.0254 26.2948 26.0015 26.237C25.9776 26.1793 25.9509 26.1229 25.9214 26.0677C25.8919 26.0126 25.8598 25.959 25.8251 25.907C25.7904 25.855 25.7532 25.8049 25.7135 25.7565C25.6738 25.7082 25.6319 25.6619 25.5876 25.6177C25.5434 25.5735 25.4971 25.5316 25.4488 25.4919C25.4005 25.4523 25.3503 25.4151 25.2983 25.3803C25.2464 25.3456 25.1928 25.3135 25.1377 25.284C25.0825 25.2545 25.026 25.2278 24.9683 25.2039C24.9105 25.18 24.8517 25.1589 24.7919 25.1407C24.732 25.1226 24.6715 25.1074 24.6102 25.0952C24.5489 25.083 24.4871 25.0739 24.4248 25.0677C24.3626 25.0616 24.3002 25.0585 24.2377 25.0585C24.1995 25.0585 24.1677 25.0585 24.1295 25.0585ZM21.3932 25.5676L22.3795 26.554C22.3477 26.6876 22.3286 26.8213 22.3286 26.9676C22.3286 27.0302 22.3317 27.0926 22.3378 27.1548C22.3439 27.217 22.3531 27.2788 22.3653 27.3401C22.3775 27.4015 22.3927 27.462 22.4108 27.5218C22.429 27.5817 22.45 27.6405 22.4739 27.6982C22.4978 27.756 22.5246 27.8125 22.5541 27.8676C22.5836 27.9228 22.6157 27.9763 22.6504 28.0283C22.6851 28.0803 22.7223 28.1304 22.762 28.1787C22.8017 28.2271 22.8436 28.2734 22.8878 28.3176C22.932 28.3618 22.9783 28.4038 23.0266 28.4434C23.0749 28.4831 23.1251 28.5203 23.1771 28.555C23.2291 28.5898 23.2827 28.6219 23.3378 28.6513C23.3929 28.6808 23.4494 28.7075 23.5071 28.7314C23.5649 28.7554 23.6237 28.7764 23.6835 28.7945C23.7434 28.8127 23.804 28.8278 23.8653 28.84C23.9266 28.8522 23.9884 28.8614 24.0506 28.8675C24.1128 28.8737 24.1752 28.8767 24.2377 28.8767C24.3777 28.8767 24.5177 28.8576 24.6514 28.8258L25.6377 29.8121C25.2114 30.0222 24.7404 30.1494 24.2377 30.1494C24.1335 30.1494 24.0295 30.1443 23.9258 30.1341C23.8221 30.1239 23.7192 30.1087 23.617 30.0883C23.5148 30.068 23.4138 30.0427 23.3141 30.0124C23.2144 29.9822 23.1164 29.9471 23.0201 29.9072C22.9238 29.8674 22.8297 29.8229 22.7378 29.7737C22.6459 29.7246 22.5567 29.6711 22.47 29.6132C22.3833 29.5553 22.2997 29.4933 22.2192 29.4272C22.1387 29.3611 22.0615 29.2912 21.9878 29.2175C21.9141 29.1439 21.8442 29.0667 21.7781 28.9861C21.712 28.9056 21.65 28.822 21.5921 28.7353C21.5342 28.6487 21.4807 28.5595 21.4316 28.4675C21.3825 28.3756 21.338 28.2815 21.2981 28.1852C21.2582 28.089 21.2232 27.991 21.1929 27.8912C21.1626 27.7916 21.1373 27.6906 21.117 27.5883C21.0967 27.4861 21.0814 27.3832 21.0712 27.2795C21.061 27.1758 21.0559 27.0718 21.0559 26.9676C21.0559 26.4649 21.1832 25.994 21.3932 25.5676ZM17.8741 22.0485L19.325 23.4994L19.6114 23.7858C18.5614 24.6131 17.7341 25.6949 17.2377 26.9676C18.3386 29.7612 21.0559 31.7403 24.2377 31.7403C25.2241 31.7403 26.1659 31.5494 27.025 31.2058L27.2986 31.473L29.1568 33.3312L29.965 32.5231L18.6823 21.2403M24.2377 23.7858C24.3419 23.7858 24.4459 23.7909 24.5496 23.8011C24.6533 23.8113 24.7563 23.8266 24.8585 23.8469C24.9607 23.8673 25.0617 23.8926 25.1614 23.9228C25.2611 23.9531 25.359 23.9882 25.4553 24.028C25.5516 24.0679 25.6457 24.1124 25.7376 24.1615C25.8295 24.2107 25.9188 24.2642 26.0054 24.322C26.0921 24.38 26.1757 24.442 26.2562 24.508C26.3368 24.5742 26.4139 24.6441 26.4876 24.7177C26.5613 24.7914 26.6312 24.8685 26.6973 24.9491C26.7634 25.0297 26.8254 25.1133 26.8833 25.1999C26.9412 25.2865 26.9947 25.3758 27.0438 25.4677C27.0929 25.5597 27.1374 25.6538 27.1773 25.75C27.2172 25.8463 27.2523 25.9443 27.2825 26.044C27.3128 26.1437 27.3381 26.2447 27.3584 26.3469C27.3787 26.4491 27.394 26.5521 27.4042 26.6557C27.4144 26.7595 27.4195 26.8634 27.4195 26.9676C27.4195 27.3749 27.3368 27.7694 27.1904 28.1258L29.055 29.9903C30.0095 29.1949 30.7732 28.1512 31.2377 26.9676C30.1368 24.174 27.4195 22.1949 24.2377 22.1949C23.3468 22.1949 22.4941 22.354 21.6923 22.6403L23.0732 24.0085C23.4359 23.8685 23.8241 23.7858 24.2377 23.7858Z">
</path>
<defs>
<linearGradient id="linear_fill_w0Fur2flZDgrxnhiXzbLd_0" x1="22.098648071289062" y1="39.567840576171875" x2="22.00391387939453" y2="11.944374084472656" gradientUnits="userSpaceOnUse">
<stop offset="0" stop-color="#CCCCCC"  />
<stop offset="1" stop-color="#E6E6E6"  />
</linearGradient>
<linearGradient id="linear_fill_ocTr2LHP5vQMIe-233QoJ_0" x1="13.921028137207031" y1="39.852325439453125" x2="13.524681091308594" y2="8.30511474609375" gradientUnits="userSpaceOnUse">
<stop offset="0" stop-color="#197CF1"  />
<stop offset="1" stop-color="#20BCFA"  />
</linearGradient>
<linearGradient id="linear_fill_IiGeJaG4nc9CrqzRXbppz_0" x1="18.025230407714844" y1="39.754241943359375" x2="17.593780517578125" y2="9.648277282714844" gradientUnits="userSpaceOnUse">
<stop offset="0" stop-color="#CCCCCC"  />
<stop offset="1" stop-color="#E6E6E6"  />
</linearGradient>
<linearGradient id="linear_fill_QYaY_du0UlgcmXNoyjjBQ_0" x1="16.751365661621094" y1="39.916015625" x2="16.242103576660156" y2="9.512336730957031" gradientUnits="userSpaceOnUse">
<stop offset="0" stop-color="#CCCCCC"  />
<stop offset="1" stop-color="#F5F2F5"  />
</linearGradient>
<linearGradient id="linear_fill_dwLlZF6o1REPB_-Fja7wY_0" x1="21.980010986328125" y1="39.904052734375" x2="22.689926147460938" y2="11.737548828125" gradientUnits="userSpaceOnUse">
<stop offset="0" stop-color="#2A97FF"  />
<stop offset="1" stop-color="#20BCFA"  />
</linearGradient>
</defs>
</svg>
