<svg xmlns="http://www.w3.org/2000/svg" xmlns:xlink="http://www.w3.org/1999/xlink" width="48" height="48" viewBox="0 0 48 48" fill="none">
<path     fill="url(#linear_fill_8KY66VP_ejyf7BIxSTjqw_0)"  d="M6.54397 11.6563C5.80881 11.6563 5.21765 12.2491 5.21765 12.9843L5.21765 38.5279C5.21765 39.263 5.80881 39.8559 6.54397 39.8559L23.7505 39.8559L24.956 39.8559L42.1625 39.8559C42.8977 39.8559 43.4888 39.263 43.4888 38.5279L43.4888 12.9843C43.4888 12.2491 42.8977 11.6563 42.1625 11.6563L24.956 11.6563L23.7505 11.6563L6.54397 11.6563Z">
</path>
<path     fill="url(#linear_fill_iPAB_0hrohR3R3lO2voX1_0)"  d="M18.4745 8.02054C18.3718 8.01785 18.2479 8.02211 18.0867 8.02211L5.91781 8.02211C5.5363 8.02211 5.22868 8.3319 5.22868 8.71595L5.22868 12.9449C5.22811 12.9609 5.22397 12.9759 5.22397 12.992L5.22397 38.5684C5.22397 39.3045 5.81748 39.898 6.55357 39.898L42.2519 39.898C42.988 39.898 43.5799 39.3045 43.5799 38.5684L43.5799 12.992C43.5799 12.2559 42.988 11.6624 42.2519 11.6624L20.9359 11.6624C20.9232 11.6455 20.9147 11.6365 20.9013 11.6185C20.4095 10.9558 19.6667 9.16927 19.1824 8.52287C18.8909 8.09841 18.7824 8.02861 18.4745 8.02054Z">
</path>
<path     fill="url(#linear_fill_XmX7Tayaem1SacU2rAIL0_0)"  d="M7.49915 9.4567L17.2375 9.4567C17.5145 9.4567 17.7375 9.6797 17.7375 9.9567L17.7375 11.0657C17.7375 11.3427 17.5145 11.5657 17.2375 11.5657L7.49915 11.5657C7.22215 11.5657 6.99915 11.3427 6.99915 11.0657L6.99915 9.9567C6.99915 9.6797 7.22215 9.4567 7.49915 9.4567Z">
</path>
<path     fill="url(#linear_fill_4ejQA1-SZGBHrF8WtkOmn_0)"  d="M5.58046 12.8508C4.94207 12.8508 4.3853 13.3947 4.42871 14.0656L5.94075 37.4319C5.98417 38.1028 6.4541 38.6467 7.09249 38.6467L22.0342 38.6467L26.4114 38.6467L41.353 38.6467C41.9914 38.6467 42.4614 38.1028 42.5048 37.4319L44.0168 14.0656C44.0602 13.3947 43.5034 12.8508 42.8651 12.8508L26.4114 12.8508L22.0342 12.8508L5.58046 12.8508Z">
</path>
<path     fill="url(#linear_fill_gzqiRrxBKDSGPScH7e1vl_0)"  d="M5.12368 14.5912C4.46912 14.5912 3.90931 15.133 3.94277 15.8028L5.08972 38.7687C5.12317 39.4385 5.61607 39.9803 6.27062 39.9803L21.9261 39.9803L26.4141 39.9803L42.4531 39.9324C43.1077 39.9304 43.6078 39.3909 43.6341 38.7208L44.5331 15.8028C44.5594 15.1327 44.0067 14.5912 43.3522 14.5912L26.4819 14.5912L21.9939 14.5912L5.12368 14.5912Z">
</path>
<path d="M24.2377 27.8926C22.9422 27.8926 21.7192 28.4639 20.8825 29.4599C20.6229 29.7687 20.6628 30.2295 20.9721 30.489C21.109 30.604 21.2755 30.6605 21.4416 30.6605C21.6501 30.6605 21.8571 30.5718 22.0012 30.3999C22.5599 29.7351 23.3752 29.3537 24.2377 29.3537C25.1003 29.3537 25.9156 29.7351 26.4742 30.3999C26.6189 30.5723 26.8259 30.6605 27.0338 30.6605C27.1999 30.6605 27.3665 30.6045 27.5033 30.489C27.8126 30.2294 27.8525 29.7687 27.593 29.4599C26.7562 28.4639 25.5332 27.8926 24.2377 27.8926Z"   fill="#FFFFFF" >
</path>
<path d="M24.2375 24.6788C22.0794 24.6788 20.0416 25.6309 18.6458 27.2913C18.3862 27.6 18.4261 28.0608 18.7354 28.3204C18.8722 28.4353 19.0388 28.4918 19.2049 28.4918C19.4133 28.4918 19.6203 28.4032 19.7645 28.2313C20.8813 26.9021 22.5119 26.1399 24.2375 26.1399C25.9631 26.1399 27.5937 26.9021 28.7109 28.2313C28.8556 28.4037 29.0626 28.4918 29.2705 28.4918C29.4366 28.4918 29.6032 28.4358 29.7401 28.3204C30.0493 28.0608 30.0892 27.5996 29.8297 27.2913C28.4333 25.6309 26.3955 24.6788 24.2375 24.6788Z"   fill="#FFFFFF" >
</path>
<path d="M32.0664 25.2425C30.1124 22.9174 27.2588 21.5843 24.2377 21.5843C21.2166 21.5843 18.3635 22.9174 16.409 25.2425C16.1494 25.5513 16.1893 26.012 16.4986 26.2716C16.6354 26.3865 16.8015 26.4431 16.9676 26.4431C17.1761 26.4431 17.3831 26.3544 17.5277 26.1825C19.2031 24.189 21.6491 23.0455 24.2377 23.0455C26.8263 23.0455 29.2722 24.189 30.9476 26.182C31.0923 26.3539 31.2993 26.4426 31.5077 26.4426C31.6738 26.4426 31.8404 26.3866 31.9772 26.2711C32.286 26.012 32.326 25.5508 32.0664 25.2425Z"   fill="#FFFFFF" >
</path>
<path d="M23.0344 31.784C23.0344 32.4482 23.5735 32.9873 24.2377 32.9873C24.9019 32.9873 25.441 32.4482 25.441 31.784C25.2377 30.0761 23.0731 30.5117 23.0344 31.784Z"   fill="#FFFFFF" >
</path>
<defs>
<linearGradient id="linear_fill_8KY66VP_ejyf7BIxSTjqw_0" x1="22.098663330078125" y1="39.567840576171875" x2="22.003936767578125" y2="11.944366455078125" gradientUnits="userSpaceOnUse">
<stop offset="0" stop-color="#CCCCCC"  />
<stop offset="1" stop-color="#E6E6E6"  />
</linearGradient>
<linearGradient id="linear_fill_iPAB_0hrohR3R3lO2voX1_0" x1="13.9210205078125" y1="39.852325439453125" x2="13.524688720703125" y2="8.30511474609375" gradientUnits="userSpaceOnUse">
<stop offset="0" stop-color="#197CF1"  />
<stop offset="1" stop-color="#20BCFA"  />
</linearGradient>
<linearGradient id="linear_fill_XmX7Tayaem1SacU2rAIL0_0" x1="18.02520751953125" y1="39.7542724609375" x2="17.59375" y2="9.648284912109375" gradientUnits="userSpaceOnUse">
<stop offset="0" stop-color="#CCCCCC"  />
<stop offset="1" stop-color="#E6E6E6"  />
</linearGradient>
<linearGradient id="linear_fill_4ejQA1-SZGBHrF8WtkOmn_0" x1="16.751373291015625" y1="39.916015625" x2="16.242095947265625" y2="9.5123291015625" gradientUnits="userSpaceOnUse">
<stop offset="0" stop-color="#CCCCCC"  />
<stop offset="1" stop-color="#F5F2F5"  />
</linearGradient>
<linearGradient id="linear_fill_gzqiRrxBKDSGPScH7e1vl_0" x1="21.97998046875" y1="39.904052734375" x2="22.689910888671875" y2="11.737548828125" gradientUnits="userSpaceOnUse">
<stop offset="0" stop-color="#2A97FF"  />
<stop offset="1" stop-color="#20BCFA"  />
</linearGradient>
</defs>
</svg>
