<?xml version="1.0" encoding="utf-8"?>
<!-- Generator: Adobe Illustrator 22.1.0, SVG Export Plug-In . SVG Version: 6.00 Build 0)  -->
<svg version="1.1" id="图层_1" xmlns="http://www.w3.org/2000/svg" xmlns:xlink="http://www.w3.org/1999/xlink" x="0px" y="0px"
	 viewBox="0 0 48 48" enable-background="new 0 0 48 48" xml:space="preserve">
<image overflow="visible" width="48" height="48" xlink:href="A7002F4E.jpg"  transform="matrix(1 0 0 1 0 5.493164e-04)">
</image>
<linearGradient id="SVGID_1_" gradientUnits="userSpaceOnUse" x1="24" y1="48" x2="24" y2="-9.094947e-13">
	<stop  offset="0" style="stop-color:#0070BF"/>
	<stop  offset="1" style="stop-color:#4CB5FF"/>
</linearGradient>
<circle fill="url(#SVGID_1_)" cx="24" cy="24" r="24"/>
<g>
	<defs>
		<path id="SVGID_2_" d="M80.3-49.4c4.9-1.3,22.6-8.3,22,7c0,0-1.6-8.4-11.5-5.1C81-44.2,75.7-42,74.5-46.2c0,0-4,0.2-4.6-3.1
			c-0.6-3.3,6.9-4.7,6.9-4.7s0.5-5.2,7-5.6c6.6-0.4,11.9,6.3,11.9,6.3s-5.5-4.4-12.6-2C76-52.9,75.4-48.1,80.3-49.4L80.3-49.4z
			 M94.8-35.3c0,0-0.5,5.2-7,5.6C81.2-29.3,75.9-36,75.9-36s5.5,4.4,12.6,2c7.1-2.4,7.7-7.2,2.8-5.9c-4.9,1.3-22.6,8.3-22-7
			c0,0,1.6,8.4,11.5,5.1c9.8-3.3,15.2-5.5,16.4-1.3c0,0,4-0.2,4.6,3.1C102.4-36.7,94.8-35.3,94.8-35.3L94.8-35.3z"/>
	</defs>
	<clipPath id="SVGID_3_">
		<use xlink:href="#SVGID_2_"  overflow="visible"/>
	</clipPath>
	<g clip-path="url(#SVGID_3_)">
		<image overflow="visible" width="48" height="48" xlink:href="A7002F49.jpg"  transform="matrix(1 0 0 1 61.3333 -68.6661)">
		</image>
	</g>
</g>
<g>
	<g>
		<linearGradient id="SVGID_4_" gradientUnits="userSpaceOnUse" x1="24" y1="38.9987" x2="24" y2="9.0013">
			<stop  offset="0" style="stop-color:#D5F1FF"/>
			<stop  offset="1" style="stop-color:#FFFFFF"/>
		</linearGradient>
		<path fill="url(#SVGID_4_)" d="M18.5,19.2c-4.9,1.3-4.3-3.5,2.8-5.9c7.1-2.4,12.6,2,12.6,2S28.6,8.6,22,9s-7,5.6-7,5.6
			S7.5,16,8.1,19.3c0.6,3.3,4.6,3.1,4.6,3.1c1.2,4.2,6.5,2,16.4-1.3c9.8-3.3,11.5,5.1,11.5,5.1C41.1,11,23.4,17.9,18.5,19.2z
			 M35.3,25.6c-1.2-4.2-6.5-2-16.4,1.3c-9.8,3.3-11.5-5.1-11.5-5.1c-0.6,15.2,17,8.3,22,7c4.9-1.3,4.3,3.5-2.8,5.9
			c-7.1,2.4-12.6-2-12.6-2S19.4,39.4,26,39c6.6-0.4,7-5.6,7-5.6s7.5-1.4,6.9-4.7C39.3,25.4,35.3,25.6,35.3,25.6z"/>
	</g>
</g>
</svg>
