<svg xmlns="http://www.w3.org/2000/svg" xmlns:xlink="http://www.w3.org/1999/xlink" width="48" height="48" viewBox="0 0 48 48" fill="none">
<path     fill="url(#linear_fill_382Pj0mYIkyZCJtjEctuE_0)"  d="M6.54397 11.6563C5.80881 11.6563 5.21765 12.2491 5.21765 12.9843L5.21765 38.5279C5.21765 39.263 5.80881 39.8559 6.54397 39.8559L23.7505 39.8559L24.956 39.8559L42.1625 39.8559C42.8977 39.8559 43.4888 39.263 43.4888 38.5279L43.4888 12.9843C43.4888 12.2491 42.8977 11.6563 42.1625 11.6563L24.956 11.6563L23.7505 11.6563L6.54397 11.6563Z">
</path>
<path     fill="url(#linear_fill_ETAYqyuaRdxpxzgGrM-TP_0)"  d="M18.4745 8.02055C18.3718 8.01786 18.2479 8.02212 18.0867 8.02212L5.91782 8.02212C5.53631 8.02212 5.22869 8.33191 5.22869 8.71596L5.22869 12.9449C5.22812 12.9609 5.22398 12.9759 5.22398 12.992L5.22398 38.5684C5.22398 39.3045 5.81749 39.898 6.55358 39.898L42.2519 39.898C42.988 39.898 43.5799 39.3045 43.5799 38.5684L43.5799 12.992C43.5799 12.2559 42.988 11.6624 42.2519 11.6624L20.9359 11.6624C20.9232 11.6455 20.9147 11.6365 20.9013 11.6185C20.4095 10.9558 19.6667 9.16928 19.1824 8.52288C18.8909 8.09842 18.7824 8.02862 18.4745 8.02055Z">
</path>
<path     fill="url(#linear_fill_tUd6HkiHBrdrHhkxaldlE_0)"  d="M7.49916 9.45669L17.2376 9.45669C17.5146 9.45669 17.7376 9.67969 17.7376 9.95669L17.7376 11.0657C17.7376 11.3427 17.5146 11.5657 17.2376 11.5657L7.49916 11.5657C7.22216 11.5657 6.99916 11.3427 6.99916 11.0657L6.99916 9.95669C6.99916 9.67969 7.22216 9.45669 7.49916 9.45669Z">
</path>
<path     fill="url(#linear_fill_-R7QJKz2QQh5XV7rEHACH_0)"  d="M5.58046 12.8508C4.94207 12.8508 4.3853 13.3947 4.42871 14.0656L5.94075 37.4319C5.98417 38.1028 6.4541 38.6467 7.09249 38.6467L22.0342 38.6467L26.4114 38.6467L41.353 38.6467C41.9914 38.6467 42.4614 38.1028 42.5048 37.4319L44.0168 14.0656C44.0602 13.3947 43.5034 12.8508 42.8651 12.8508L26.4114 12.8508L22.0342 12.8508L5.58046 12.8508Z">
</path>
<path     fill="url(#linear_fill_bIC293sGItlUHl_600R9x_0)"  d="M5.12369 14.5912C4.46914 14.5912 3.90933 15.133 3.94279 15.8028L5.08973 38.7687C5.12318 39.4385 5.61608 39.9803 6.27063 39.9803L21.9262 39.9803L26.4142 39.9803L42.4532 39.9324C43.1078 39.9304 43.6079 39.3909 43.6342 38.7208L44.5332 15.8028C44.5595 15.1327 44.0068 14.5912 43.3523 14.5912L26.482 14.5912L21.994 14.5912L5.12369 14.5912Z">
</path>
<path     fill="url(#linear_fill_qdlCufo-E9JAX7phzInYX_0)"  d="M18.8757 21.2858C18.5225 21.2858 18.2377 21.5954 18.2377 21.9811L18.2377 32.5892C18.2377 32.9748 18.5225 33.2858 18.8757 33.2858L29.5997 33.2858C29.9529 33.2858 30.2377 32.9748 30.2377 32.5892L30.2377 21.9811C30.2377 21.5954 29.9529 21.2858 29.5997 21.2858L18.8757 21.2858ZM25.6635 25.5735L28.2377 28.998L20.2377 28.998L22.2377 26.4316L23.6635 28.1478L25.6635 25.5735Z">
</path>
<defs>
<linearGradient id="linear_fill_382Pj0mYIkyZCJtjEctuE_0" x1="22.098663330078125" y1="39.567832946777344" x2="22.003921508789062" y2="11.944374084472656" gradientUnits="userSpaceOnUse">
<stop offset="0" stop-color="#CCCCCC"  />
<stop offset="1" stop-color="#E6E6E6"  />
</linearGradient>
<linearGradient id="linear_fill_ETAYqyuaRdxpxzgGrM-TP_0" x1="13.921035766601562" y1="39.852325439453125" x2="13.524688720703125" y2="8.30511474609375" gradientUnits="userSpaceOnUse">
<stop offset="0" stop-color="#197CF1"  />
<stop offset="1" stop-color="#20BCFA"  />
</linearGradient>
<linearGradient id="linear_fill_tUd6HkiHBrdrHhkxaldlE_0" x1="18.025238037109375" y1="39.754249572753906" x2="17.593780517578125" y2="9.648277282714844" gradientUnits="userSpaceOnUse">
<stop offset="0" stop-color="#CCCCCC"  />
<stop offset="1" stop-color="#E6E6E6"  />
</linearGradient>
<linearGradient id="linear_fill_-R7QJKz2QQh5XV7rEHACH_0" x1="16.751358032226562" y1="39.916015625" x2="16.242111206054688" y2="9.512336730957031" gradientUnits="userSpaceOnUse">
<stop offset="0" stop-color="#CCCCCC"  />
<stop offset="1" stop-color="#F5F2F5"  />
</linearGradient>
<linearGradient id="linear_fill_bIC293sGItlUHl_600R9x_0" x1="21.980010986328125" y1="39.90404510498047" x2="22.689926147460938" y2="11.737548828125" gradientUnits="userSpaceOnUse">
<stop offset="0" stop-color="#2A97FF"  />
<stop offset="1" stop-color="#20BCFA"  />
</linearGradient>
<linearGradient id="linear_fill_qdlCufo-E9JAX7phzInYX_0" x1="24.160797119140625" y1="21.516494750976562" x2="24.070404052734375" y2="33.08711242675781" gradientUnits="userSpaceOnUse">
<stop offset="0" stop-color="#F6FBFF"  />
<stop offset="1" stop-color="#EAEFF2"  />
</linearGradient>
</defs>
</svg>
